<?xml version="1.0" standalone="no"?>
<!DOCTYPE svg PUBLIC "-//W3C//DTD SVG 1.1//EN" "http://www.w3.org/Graphics/SVG/1.1/DTD/svg11.dtd" >
<svg xmlns="http://www.w3.org/2000/svg">
<metadata></metadata>
<defs>
<font id="kenzoitalic" horiz-adv-x="860" >
<font-face units-per-em="2048" ascent="1536" descent="-512" />
<missing-glyph horiz-adv-x="616" />
<glyph horiz-adv-x="2048" />
<glyph horiz-adv-x="2048" />
<glyph unicode="&#xd;" horiz-adv-x="2048" />
<glyph unicode=" "  horiz-adv-x="616" />
<glyph unicode="&#x09;" horiz-adv-x="616" />
<glyph unicode="&#xa0;" horiz-adv-x="616" />
<glyph unicode="!" horiz-adv-x="321" d="M68 90q7 37 40 63.5t70 26.5q38 0 60 -26.5t14 -63.5t-40.5 -63.5t-70.5 -26.5q-37 0 -58.5 26.5t-14.5 63.5zM135 358l227 1076h160l-227 -1076h-160z" />
<glyph unicode="&#x22;" horiz-adv-x="614" d="M301 1143l94 291h215l-170 -291h-139zM549 1143l94 291h215l-170 -291h-139z" />
<glyph unicode="#" horiz-adv-x="970" d="M113 252l37 141h157l86 318h-149l41 141h147q12 45 38.5 141.5t37.5 141.5h166l-76 -283h188q12 45 38.5 141.5t37.5 141.5h164l-74 -283h140l-45 -141h-134l-88 -318h127l-39 -141h-125l-67 -252h-166l68 252h-187q-46 -160 -69 -252h-164l67 252h-157zM473 393h186 l89 318h-189z" />
<glyph unicode="$" d="M130.5 265q-2.5 43 0 63t4.5 30l19 91h202l-18 -91q0 -9 -2 -31.5t7 -59t28 -58.5l96 446q-67 33 -112.5 79.5t-62.5 85.5t-23 80t-4.5 58.5t3.5 26.5l19 90q23 90 82 174q47 66 116.5 112.5t143.5 61.5l20 97h205l-20 -97q70 -17 118.5 -62t67.5 -112q11 -39 13 -82.5 t-0.5 -62.5t-4.5 -29l-18 -90h-205l18 90q3 10 4.5 31.5t-6 59t-28.5 59.5l-97 -447q67 -33 112.5 -79.5t62.5 -85.5t23 -79.5t4.5 -58t-3.5 -26.5l-18 -91q-22 -87 -82 -174q-103 -137 -263 -176l-18 -94h-205l19 94q-65 19 -114.5 66.5t-68.5 109.5q-12 38 -14.5 81z M471 987q-5 -18 3.5 -51t37.5 -62l76 351q-30 -22 -54.5 -59t-33 -59t-11.5 -32zM575 209q30 22 54.5 59.5t32 57.5t10.5 32l18 88q0 63 -39 113z" />
<glyph unicode="%" horiz-adv-x="1390" d="M270 0l936 1434h215l-934 -1434h-217zM302.5 983.5q-0.5 -31.5 4.5 -61.5q21 -72 75 -115t130 -43q80 0 149.5 41t118.5 117q32 50 62 141l14 70q16 63 2 143q-19 76 -72 117t-133 41q-79 0 -148.5 -41.5t-119.5 -116.5q-40 -58 -61 -143l-15 -70q-2 -5 -4 -26.5 t-2.5 -53zM461 1034q0 6 0.5 11.5t0.5 9v5.5l1 3l14 70q0 3 3.5 12t12.5 26t21 35q32 49 102 49q68 0 82 -49q3 -11 4.5 -22t1.5 -19.5t-0.5 -15t-1.5 -11.5v-5l-14 -70q0 -2 -3.5 -11t-12.5 -26.5t-21 -34.5q-32 -49 -102 -49q-68 0 -82 49q-2 8 -3.5 15.5t-2 14.5t-0.5 13 zM831.5 224.5q0.5 -34.5 6.5 -62.5q19 -77 71 -117.5t131 -40.5q82 0 151.5 40.5t119.5 117.5q10 15 19 32t15 31t11 28.5t7.5 24t4.5 17t2 8.5l14 70q2 9 4.5 27t3.5 53t-6 63q-17 77 -69.5 117.5t-134.5 40.5q-79 0 -148.5 -40.5t-120.5 -117.5q-40 -58 -61 -143l-14 -70 q-2 -5 -4.5 -24.5t-2 -54zM990 274q0 6 0.5 11.5t1 9t0.5 5.5l1 3l15 70q0 1 2.5 8t5.5 15.5t10 22.5t16 27q33 50 103 50q38 0 58.5 -16t31.5 -52q2 -15 0 -33t-4 -22l-14 -70q0 -2 -2.5 -10.5t-11 -26.5t-19.5 -35q-38 -49 -107 -49t-80 49q-2 8 -4 15.5t-2.5 14.5 t-0.5 13z" />
<glyph unicode="&#x26;" horiz-adv-x="1122" d="M154 444q23 111 96.5 207.5t179.5 161.5q-92 114 -59 260q31 149 162.5 255t285.5 106q155 0 242.5 -106t56.5 -255h-205q15 75 -23 127.5t-108 52.5q-71 0 -132.5 -52.5t-76.5 -127.5q-17 -76 25.5 -129t118.5 -53l-39 -180q-109 0 -204 -78.5t-118 -188.5 q-23 -109 35 -187.5t162 -78.5q105 0 196.5 78.5t114.5 187.5l58 273h-91l37 178h383l-37 -178h-88l-57 -273q-40 -184 -202 -314t-351 -130q-124 0 -216.5 59t-132 161.5t-13.5 223.5z" />
<glyph unicode="'" horiz-adv-x="366" d="M301 1143l94 291h215l-170 -291h-139z" />
<glyph unicode="(" horiz-adv-x="501" d="M130 266.5q-2 43.5 0.5 62.5t4.5 29l152 717q22 87 82 174q63 89 160.5 137t215.5 48l-36 -181q-44 0 -82 -15.5t-61.5 -38t-41 -49t-25.5 -45t-10 -30.5l-151 -717q-2 -10 -2.5 -24.5t1.5 -36t11 -41.5t23.5 -38t42.5 -29t65 -11l-37 -178q-119 0 -196.5 47.5 t-102.5 136.5q-11 39 -13 82.5z" />
<glyph unicode=")" horiz-adv-x="501" d="M59 0l37 178q54 0 97.5 22.5t67.5 56.5t35.5 58t16.5 43l152 717q3 14 3.5 31.5t-5 45t-19 49t-44 37t-74.5 15.5l36 181q118 0 196 -48t104 -137q11 -39 13 -82.5t-0.5 -62.5t-4.5 -29l-152 -717q-22 -87 -82 -174q-65 -89 -162 -136.5t-215 -47.5z" />
<glyph unicode="*" horiz-adv-x="739" d="M315 946l183 164l-181 100l89 123l151 -86l39 187h156l-39 -187q18 8 85.5 40t100.5 46l35 -123l-217 -100q6 -9 110 -164l-133 -96l-110 168l-181 -168z" />
<glyph unicode="+" d="M193 627l36 180h269l57 268h205l-58 -268h269l-37 -180h-268l-58 -269h-205l58 269h-268z" />
<glyph unicode="," horiz-adv-x="370" d="M27 -150l141 254h162l-201 -260z" />
<glyph unicode="-" d="M193 627l36 180h742l-37 -180h-741z" />
<glyph unicode="." horiz-adv-x="321" d="M78 90q7 37 40 63.5t70 26.5q38 0 60 -26.5t14 -63.5t-40 -63.5t-70 -26.5q-37 0 -59 26.5t-15 63.5z" />
<glyph unicode="/" horiz-adv-x="751" d="M59 0l725 1434h211l-725 -1434h-211z" />
<glyph unicode="0" horiz-adv-x="770" d="M125.5 267.5q1.5 41.5 4.5 61t5 29.5l152 717q24 98 71 168q57 92 142 141.5t188 49.5q102 0 166 -49t86 -142q7 -37 6 -77.5t-3.5 -61.5t-4.5 -29l-152 -717q-24 -98 -71 -168q-59 -92 -143.5 -141t-186.5 -49q-103 0 -167.5 49t-84.5 141q-9 36 -7.5 77.5zM332 308.5 q2 -28.5 7 -57.5t27 -51t56 -22q68 0 117 80q14 22 25 47t16 39l4 14l151 717q15 68 -7 123t-77 55q-69 0 -116 -77q-15 -22 -26.5 -47t-15.5 -39l-4 -15l-153 -725q-6 -13 -4 -41.5z" />
<glyph unicode="1" horiz-adv-x="571" d="M309 0l248 1171l-121 -114l-125 119l260 258h244l-303 -1434h-203z" />
<glyph unicode="2" horiz-adv-x="770" d="M59 0l37 178q2 10 9 33.5t32.5 79t62 114t105 136.5t154.5 149q190 158 262 316l18 88q3 13 3.5 33.5t-3.5 51.5t-26.5 52.5t-61.5 21.5q-27 0 -50.5 -10.5t-40 -27t-29 -35t-20.5 -38t-11.5 -30.5t-5.5 -18l-17 -82h-203l17 82q22 88 71 161q59 87 143 133t183 46 q100 0 166 -46.5t86 -132.5q8 -37 8.5 -76.5t-2 -57.5t-4.5 -27l-16 -82q-64 -212 -351 -449q-75 -62 -133.5 -124.5t-88.5 -106t-49.5 -81.5t-24.5 -54t-5 -19h474l-37 -178h-652z" />
<glyph unicode="3" horiz-adv-x="770" d="M125.5 267.5q1.5 41.5 4.5 61t5 29.5l29 136h203l-31 -144q-6 -13 -4 -41.5t7 -57.5t27 -51t56 -22q55 0 101 56t61 124l28 142q4 15 4 40.5t-6 56.5t-27.5 53t-56.5 22h-102l39 180h102q34 0 64 19t48.5 47t29.5 51.5t16 42.5l16 82q3 13 3.5 33.5t-3.5 51.5t-26.5 52.5 t-61.5 21.5q-38 0 -69.5 -21t-49 -50.5t-27 -52t-11.5 -35.5l-17 -82h-203l17 82q22 88 71 161q59 87 143 133t183 46q100 0 166 -46.5t86 -132.5q8 -37 8.5 -76.5t-2 -57.5t-4.5 -27l-16 -82q-55 -165 -156 -252q31 -46 42 -113.5t8.5 -101.5t-5.5 -51l-29 -136 q-23 -93 -71 -168q-59 -92 -143.5 -141t-186.5 -49q-103 0 -167.5 49t-84.5 141q-9 36 -7.5 77.5z" />
<glyph unicode="4" horiz-adv-x="770" d="M143 403l43 195l471 836h267l-181 -852h91l-39 -179h-90l-84 -403h-203l84 403h-359zM391 582h150l90 422q-161 -280 -240 -422z" />
<glyph unicode="5" horiz-adv-x="770" d="M125.5 267.5q1.5 41.5 4.5 61t5 29.5l29 136h203l-31 -144q-6 -13 -4 -41.5t7 -57.5t27 -51t56 -22q68 0 117 80q14 22 25 47t16 39l4 14l28 142q4 15 4 40.5t-6 56.5t-27 53t-55 22q-51 0 -152.5 -8t-131.5 -9l164 779h516l-37 -181h-314l-88 -405l80 4q103 0 167 -49 t83 -141q8 -37 8 -78.5t-3 -60.5t-5 -29l-29 -136q-23 -93 -71 -168q-59 -92 -143.5 -141t-186.5 -49q-103 0 -167.5 49t-84.5 141q-9 36 -7.5 77.5z" />
<glyph unicode="6" horiz-adv-x="770" d="M125.5 267.5q1.5 41.5 4.5 61t5 29.5l152 717q24 98 71 168q57 92 142 141.5t188 49.5q102 0 166 -49t86 -142q3 -16 5 -34t2 -33t-0.5 -29.5t-1.5 -26t-2 -20t-2 -14.5l-1 -5h-203q3 16 3 40.5t-5 56.5t-27 53.5t-57 21.5t-66 -21t-50 -51.5t-30.5 -55.5t-15.5 -42v-12 l-51 -242q61 23 127 23q103 0 167 -49t83 -141q8 -37 8 -78.5t-3 -60.5t-5 -29l-29 -136q-23 -93 -71 -168q-59 -92 -143.5 -141t-186.5 -49q-103 0 -167.5 49t-84.5 141q-9 36 -7.5 77.5zM332 308.5q2 -28.5 7 -57.5t27 -51t56 -22q55 0 101 56t61 124l28 142q4 15 4 40.5 t-6 56.5t-27.5 53t-56.5 22q-39 0 -71.5 -25t-50 -59.5t-27 -59.5t-10.5 -36l-31 -142q-6 -13 -4 -41.5z" />
<glyph unicode="7" horiz-adv-x="788" d="M59 0l727 1253h-442l37 181h651l-41 -195l-717 -1239h-215z" />
<glyph unicode="8" horiz-adv-x="770" d="M125.5 267.5q1.5 41.5 4.5 61t5 29.5l29 136q3 15 15.5 50.5t51 102.5t88.5 113q-32 43 -43.5 105t-8.5 98t7 49l17 82q22 88 71 161q59 87 143 133t183 46q100 0 166 -46.5t86 -132.5q8 -37 8.5 -76.5t-2 -57.5t-4.5 -27l-16 -82q-55 -165 -156 -252q31 -46 42 -113.5 t8.5 -101.5t-5.5 -51l-29 -136q-23 -93 -71 -168q-59 -92 -143.5 -141t-186.5 -49q-103 0 -167.5 49t-84.5 141q-9 36 -7.5 77.5zM332 308.5q2 -28.5 7 -57.5t27 -51t56 -22q55 0 101 56t61 124l28 142q4 15 4 40.5t-6 56.5t-27.5 53t-56.5 22q-39 0 -71.5 -25t-50 -59.5 t-27 -59.5t-10.5 -36l-31 -142q-6 -13 -4 -41.5zM473.5 979.5q-0.5 -21.5 3.5 -52.5t26.5 -53t61.5 -22q34 0 64 19t48.5 47t29.5 51.5t16 42.5l16 82q3 13 3.5 33.5t-3.5 51.5t-26.5 52.5t-61.5 21.5q-38 0 -69.5 -21t-49 -50.5t-27 -52t-11.5 -35.5l-17 -82 q-3 -11 -3.5 -32.5z" />
<glyph unicode="9" horiz-adv-x="770" d="M125.5 267.5q1.5 41.5 4.5 61t5 29.5h203l-2 -8q-6 -13 -4 -41.5t7 -57.5t27 -51t56 -22q55 0 101 56t61 124l51 246q-58 -22 -127 -22q-103 0 -167 49t-83 141q-8 37 -8 78.5t3 60.5t5 29l29 135q24 98 71 168q57 92 142 141.5t188 49.5q102 0 167 -49t85 -142 q9 -36 7.5 -77.5t-4.5 -61t-5 -29.5l-152 -717q-23 -93 -71 -168q-59 -92 -143.5 -141t-186.5 -49q-103 0 -167.5 49t-84.5 141q-9 36 -7.5 77.5zM456.5 890.5q2.5 -28.5 8 -57t27.5 -50t55 -21.5q39 0 71.5 25t50.5 59.5t27.5 59.5t10.5 36l30 139q3 16 3 40.5t-5 56.5 t-27 53.5t-57 21.5t-66 -21t-50 -51.5t-30.5 -55.5t-15.5 -42v-12l-30 -139q-5 -13 -2.5 -41.5z" />
<glyph unicode=":" horiz-adv-x="321" d="M78 90q7 37 40 63.5t70 26.5q38 0 60 -26.5t14 -63.5t-40 -63.5t-70 -26.5q-37 0 -59 26.5t-15 63.5zM211 717q7 37 40.5 63.5t70.5 26.5q38 0 59.5 -26.5t13.5 -63.5t-40 -63.5t-70 -26.5q-37 0 -59 26.5t-15 63.5z" />
<glyph unicode=";" horiz-adv-x="370" d="M27 -150l141 254h162l-201 -260zM211 717q7 37 40.5 63.5t70.5 26.5q38 0 59.5 -26.5t13.5 -63.5t-40 -63.5t-70 -26.5q-37 0 -59 26.5t-15 63.5z" />
<glyph unicode="&#x3c;" horiz-adv-x="688" d="M215 717l520 471l115 -127l-377 -344q37 -56 116 -170.5t116 -171.5l-170 -129z" />
<glyph unicode="=" horiz-adv-x="950" d="M143 403l39 179h832l-39 -179h-832zM240 852l36 178h832l-37 -178h-831z" />
<glyph unicode="&#x3e;" horiz-adv-x="688" d="M139 375l379 342q-42 64 -123.5 182t-109.5 160l172 129l319 -471l-520 -471z" />
<glyph unicode="?" horiz-adv-x="770" d="M274 1012l17 82q22 88 71 161q59 87 143 133t183 46q100 0 166 -46.5t86 -132.5q8 -37 8.5 -76.5t-2 -57.5t-4.5 -27l-16 -82q-39 -155 -176 -269q-35 -29 -64 -65t-46 -67t-28.5 -58t-15.5 -43l-4 -16l-29 -136h-205l29 136q4 15 7.5 27.5t23 60t43.5 88.5t70 97.5 t102 102.5q19 15 35 35.5t25.5 38t16 33t10.5 25.5l3 10l16 82q2 12 3 22.5t-1 38.5t-9.5 47t-28 35t-52.5 16q-39 0 -71 -22t-49.5 -53t-26.5 -52.5t-10 -31.5l-17 -82h-203zM297 90q7 37 40.5 63.5t70.5 26.5q38 0 59.5 -26.5t13.5 -63.5t-40 -63.5t-70 -26.5 q-37 0 -59 26.5t-15 63.5z" />
<glyph unicode="@" horiz-adv-x="1576" d="M200.5 491q-11.5 107 10.5 226q31 145 117 278t204 229t265 153t295 57q118 0 222 -36.5t178.5 -102t125 -155.5t62 -197t-10.5 -226q-31 -145 -117 -278t-204 -229t-265 -153t-295 -57q-118 0 -222 36.5t-178.5 102t-125 155.5t-62 197zM414 717q-31 -146 13 -270 t149.5 -196.5t248.5 -72.5t279 72.5t232.5 196.5t127.5 270t-12.5 269.5t-148.5 195t-248 71.5t-279.5 -71.5t-233.5 -195t-128 -269.5zM524 717q31 147 162.5 252.5t284.5 105.5q91 0 159 -41l9 41h202l-151 -717h-203l8 39q-82 -39 -176 -39q-153 0 -240 105t-55 254z M729 717q-15 -74 21.5 -127t105.5 -53t130.5 53.5t76.5 126.5t-23.5 125.5t-107.5 52.5t-128.5 -52t-74.5 -126z" />
<glyph unicode="A" horiz-adv-x="1024" d="M59 0l611 1434h291l4 -1434h-207l-2 449h-299l-191 -449h-207zM535 627h221l-2 514q-15 -35 -219 -514z" />
<glyph unicode="B" d="M59 0l303 1434h332q6 0 14.5 -0.5t33.5 -4t47 -11t53 -21t52.5 -34t46 -50.5t33 -70.5t12.5 -92.5q1 -10 1 -22q0 -44 -14 -98q-35 -174 -170 -295q94 -85 94 -224q0 -50 -12 -108q-17 -82 -52 -149t-73.5 -107.5t-87.5 -71t-86.5 -44t-78 -21.5t-54.5 -9t-23 -1h-371z M299 178h162l3 1q4 1 9 1q58 10 88 29q89 48 119 194q9 44 9 80q0 82 -48 117q-17 10 -36.5 17t-30.5 9l-11 1h-168zM432 807h129q22 0 50 11.5t60 35.5t59.5 70t39.5 106q7 41 7 74q0 18 -2 32q-6 42 -28.5 68.5t-45 37.5t-44.5 11h-129z" />
<glyph unicode="C" d="M130 266q-1 19 -1 34q-1 18 1 29q2 19 5 29l152 717q22 87 82 174q63 89 157 137t207 48q112 0 186.5 -48t100.5 -137q11 -39 13 -83q1 -19 0 -33q-1 -18 -1 -29q-2 -19 -4 -29l-18 -90h-205l18 90q3 14 3.5 31.5t-4.5 45t-17 49t-40 37t-69 15.5q-50 0 -91.5 -22.5 t-65 -55.5t-35.5 -58.5t-15 -41.5l-151 -717q-2 -13 -3 -31t4.5 -45.5t17.5 -49.5t40.5 -38t69.5 -16t76 16t56.5 37.5t38.5 49t24 45.5t10 32l18 91h205l-18 -91q-22 -87 -82 -174q-64 -89 -158 -136.5t-207 -47.5t-187.5 47.5t-99.5 136.5q-11 38 -13 82z" />
<glyph unicode="D" d="M59 0l303 1434h371q112 0 186.5 -48t100.5 -137q11 -39 13 -83q1 -19 1 -33q0 -18 -2 -29q-2 -19 -4 -29l-151 -717q-23 -106 -90.5 -187.5t-168.5 -127.5q-96 -43 -188 -43h-371zM299 178h160q75 0 136.5 54t76.5 126l151 717q4 17 4 35t-5 42q-5 28 -17 49t-40 36.5 t-69 15.5h-168z" />
<glyph unicode="E" horiz-adv-x="770" d="M59 0l303 1434h652l-37 -181h-449l-96 -446h334l-37 -180h-334l-96 -449h449l-37 -178h-652z" />
<glyph unicode="F" horiz-adv-x="770" d="M59 0l303 1434h652l-37 -181h-449l-96 -446h334l-37 -180h-334l-133 -627h-203z" />
<glyph unicode="G" d="M130 266q-1 20 -1 34q0 18 1 29q3 19 5 29l152 717q22 87 82 174q63 89 157 137t207 48q112 0 186.5 -48t100.5 -137q11 -39 13 -83q1 -19 1 -33q0 -18 -2 -29q-2 -19 -4 -29l-18 -90h-205l18 90q3 14 3.5 31.5t-4.5 45t-17 49t-40 37t-69 15.5q-50 0 -91.5 -22.5 t-65 -55.5t-35.5 -58.5t-15 -41.5l-151 -717q-2 -13 -3 -31t4.5 -45.5t17.5 -49.5t40.5 -38t69.5 -16t76 16t56.5 37.5t38.5 49t24 45.5t10 32l57 269h-133l37 180h338l-94 -449q-22 -87 -82 -174q-64 -89 -158 -136.5t-207 -47.5t-187.5 47.5t-99.5 136.5q-11 39 -13 82z " />
<glyph unicode="H" d="M59 0l303 1434h203l-133 -627h334l133 627h205l-303 -1434h-205l133 627h-334l-133 -627h-203z" />
<glyph unicode="I" horiz-adv-x="321" d="M59 0l303 1434h203l-303 -1434h-203z" />
<glyph unicode="J" d="M130 266q-1 20 -1 34q0 18 1 29q3 19 5 29l19 91h202l-18 -91q-2 -13 -3 -31t4.5 -45.5t17.5 -49.5t40.5 -38t69.5 -16t76 16t56.5 37.5t38.5 49t24 45.5t10 32l227 1076h205l-227 -1076q-22 -87 -82 -174q-64 -89 -158 -136.5t-207 -47.5t-187.5 47.5t-99.5 136.5 q-11 39 -13 82z" />
<glyph unicode="K" horiz-adv-x="937" d="M59 0l303 1434h203l-135 -637l512 637h238l-574 -717q48 -132 142.5 -378.5t128.5 -338.5h-230l-201 535q-9 -10 -44 -51t-52 -62l-88 -422h-203z" />
<glyph unicode="L" horiz-adv-x="679" d="M59 0l303 1434h203l-266 -1256h358l-36 -178h-562z" />
<glyph unicode="M" horiz-adv-x="1218" d="M59 0l303 1434h275l41 -1104l510 1104h274l-303 -1434h-205l185 877q-49 -108 -189 -409t-215 -468h-254l-35 877l-184 -877h-203z" />
<glyph unicode="N" d="M59 0l303 1434h246l101 -902l190 902h205l-303 -1434h-248l-100 901l-191 -901h-203z" />
<glyph unicode="O" d="M130 266q-1 19 -1 34q-1 18 1 29q2 19 5 29l152 717q22 87 82 174q63 89 157 137t207 48q112 0 186.5 -48t100.5 -137q11 -39 13 -83q1 -19 1 -33q0 -18 -2 -29q-2 -19 -4 -29l-151 -717q-22 -87 -82 -174q-64 -89 -158 -136.5t-207 -47.5t-187.5 47.5t-99.5 136.5 q-11 38 -13 82zM335 327v-6q1 -15 5 -39q6 -28 17.5 -50t40 -38t69.5 -16t76 16t56.5 37.5t38.5 49t24 45.5t10 32l151 717q4 17 4 35t-5 42q-5 28 -17 49t-40 36.5t-69 15.5q-50 0 -91.5 -22.5t-65 -55.5t-35.5 -58.5t-15 -41.5l-151 -717q-2 -13 -3 -31z" />
<glyph unicode="P" d="M59 0l303 1434h371q13 0 34 -2t64.5 -15t77.5 -35q67 -46 103 -131q20 -47 19 -109q0 -51 -13 -112q-17 -82 -51.5 -148.5t-73.5 -107t-87.5 -71t-86 -44.5t-78 -22t-55 -9t-23.5 -1h-168l-133 -627h-203zM432 807h168q39 0 94 29q89 48 119 194q11 46 11 83 q0 79 -50 114q-17 12 -36.5 18.5t-30.5 6.5l-11 1h-168z" />
<glyph unicode="Q" d="M130 265q-1 21 -1 37t1 26q3 20 5 30l152 717q22 87 82 174q63 89 157 137t207 48q112 0 186.5 -48t100.5 -137q11 -39 13 -83q1 -19 1 -33q0 -18 -2 -29q-2 -19 -4 -29l-151 -717q-22 -87 -82 -174q-105 -139 -273 -176h10l-32 -153h-205l33 153h10q-72 19 -123 66 t-70 110q-12 38 -15 81zM336 326v-8q0 -21 7 -50q9 -37 28 -59l30 139h205l-31 -139q30 22 54.5 59.5t32 57.5t10.5 32l151 717q4 17 4 35q0 16 -5 42q-5 27 -17 48.5t-40 37t-69 15.5q-50 0 -91.5 -22.5t-65 -55.5t-35.5 -58.5t-15 -41.5l-151 -717q0 -9 -2 -32z" />
<glyph unicode="R" d="M59 0l303 1434h371q6 0 14.5 -0.5t34 -4t47.5 -10.5t54 -20.5t53.5 -34t47 -50.5t34 -70.5t13.5 -93.5q1 -12 1 -24q0 -44 -14 -96q-39 -193 -191 -309q78 -75 78 -187q0 -40 -10 -85l-94 -449h-205l94 449q4 17 4 34q0 46 -28 87q-38 57 -103 57h-168l-133 -627h-203z M432 807h168q21 0 49 11t61 34.5t61.5 70t41.5 107.5q11 46 11 83q0 79 -50 114q-17 12 -36.5 18.5t-30.5 6.5l-11 1h-168z" />
<glyph unicode="S" d="M130 266q-1 19 -1 34q-1 18 1 29q2 19 5 29l19 91h202l-18 -91q-2 -13 -3 -31t4.5 -45.5t17.5 -49.5t40.5 -38t69.5 -16t76 16t56.5 37.5t38.5 49t24 45.5t10 32l18 88q1 5 0 17t-9 34.5t-23 44.5t-48.5 46.5t-79.5 42.5q-61 23 -108 55t-74.5 63t-46 66t-25 62t-9 53.5 t-1.5 37.5t2 17l19 90q22 87 82 174q63 89 157 137t207 48q112 0 186.5 -48t100.5 -137q11 -39 13 -83q1 -19 0 -33q-1 -18 -1 -29q-2 -19 -4 -29l-18 -90h-205l18 90q3 14 3.5 31.5t-4.5 45t-17 49t-40 37t-69 15.5q-50 0 -91.5 -22.5t-65 -55.5t-35.5 -58.5t-15 -41.5 l-18 -90q-1 -8 0 -20t9.5 -34.5t24 -44t49 -45t79.5 -40.5q63 -23 111.5 -55t76 -62.5t45.5 -65.5t24.5 -61.5t7.5 -53.5t-0.5 -37t-2.5 -17l-18 -91q-22 -87 -82 -174q-64 -89 -158 -136.5t-207 -47.5t-187.5 47.5t-99.5 136.5q-11 38 -13 82z" />
<glyph unicode="T" d="M326 1253l36 181h742l-37 -181h-268l-267 -1253h-204l266 1253h-268z" />
<glyph unicode="U" d="M130 266q-1 19 -1 34q-1 18 1 29q2 19 5 29l227 1076h203l-227 -1076q-2 -13 -3 -31t4.5 -45.5t17.5 -49.5t40.5 -38t69.5 -16t76 16t56.5 37.5t38.5 49t24 45.5t10 32l227 1076h205l-227 -1076q-22 -87 -82 -174q-64 -89 -158 -136.5t-207 -47.5t-187.5 47.5 t-99.5 136.5q-11 38 -13 82z" />
<glyph unicode="V" horiz-adv-x="1024" d="M362 1434h207l4 -1139l488 1139h207l-611 -1434h-290z" />
<glyph unicode="W" horiz-adv-x="1474" d="M336 0l26 1434h207l-20 -1014l381 1014h221l-18 -1012q63 169 189.5 506t188.5 506h207l-534 -1434h-264l16 891q-55 -150 -166.5 -446t-167.5 -445h-266z" />
<glyph unicode="X" horiz-adv-x="927" d="M59 0l447 717l-144 717h220l90 -451q46 76 140 225.5t140 225.5h219l-446 -717l143 -717h-219l-92 451l-278 -451h-220z" />
<glyph unicode="Y" horiz-adv-x="927" d="M362 0l148 698l-148 736h220l90 -451q46 76 140 225.5t140 225.5h219l-458 -736l-148 -698h-203z" />
<glyph unicode="Z" d="M59 0l41 197l754 1056h-528l36 181h742l-41 -197l-754 -1059h529l-37 -178h-742z" />
<glyph unicode="[" horiz-adv-x="501" d="M59 0l303 1434h383l-36 -181h-181l-229 -1075h180l-37 -178h-383z" />
<glyph unicode="\" horiz-adv-x="751" d="M362 1434h211l119 -1434h-211z" />
<glyph unicode="]" horiz-adv-x="501" d="M59 0l37 178h178l230 1075h-178l36 181h383l-303 -1434h-383z" />
<glyph unicode="^" horiz-adv-x="886" d="M293 1098l452 325l312 -325l-154 -144l-209 222l-305 -222z" />
<glyph unicode="_" d="M59 0l37 180h742l-37 -180h-742z" />
<glyph unicode="a" horiz-adv-x="1024" d="M59 0l611 1434h291l4 -1434h-207l-2 449h-299l-191 -449h-207zM535 627h221l-2 514q-15 -35 -219 -514z" />
<glyph unicode="b" d="M59 0l303 1434h332q6 0 14.5 -0.5t33.5 -4t47 -11t53 -21t52.5 -34t46 -50.5t33 -70.5t12.5 -92.5q1 -10 1 -22q0 -44 -14 -98q-35 -174 -170 -295q94 -85 94 -224q0 -50 -12 -108q-17 -82 -52 -149t-73.5 -107.5t-87.5 -71t-86.5 -44t-78 -21.5t-54.5 -9t-23 -1h-371z M299 178h162l3 1q4 1 9 1q58 10 88 29q89 48 119 194q9 44 9 80q0 82 -48 117q-17 10 -36.5 17t-30.5 9l-11 1h-168zM432 807h129q22 0 50 11.5t60 35.5t59.5 70t39.5 106q7 41 7 74q0 18 -2 32q-6 42 -28.5 68.5t-45 37.5t-44.5 11h-129z" />
<glyph unicode="c" d="M130 266q-1 19 -1 34q-1 18 1 29q2 19 5 29l152 717q22 87 82 174q63 89 157 137t207 48q112 0 186.5 -48t100.5 -137q11 -39 13 -83q1 -19 0 -33q-1 -18 -1 -29q-2 -19 -4 -29l-18 -90h-205l18 90q3 14 3.5 31.5t-4.5 45t-17 49t-40 37t-69 15.5q-50 0 -91.5 -22.5 t-65 -55.5t-35.5 -58.5t-15 -41.5l-151 -717q-2 -13 -3 -31t4.5 -45.5t17.5 -49.5t40.5 -38t69.5 -16t76 16t56.5 37.5t38.5 49t24 45.5t10 32l18 91h205l-18 -91q-22 -87 -82 -174q-64 -89 -158 -136.5t-207 -47.5t-187.5 47.5t-99.5 136.5q-11 38 -13 82z" />
<glyph unicode="d" d="M59 0l303 1434h371q112 0 186.5 -48t100.5 -137q11 -39 13 -83q1 -19 1 -33q0 -18 -2 -29q-2 -19 -4 -29l-151 -717q-23 -106 -90.5 -187.5t-168.5 -127.5q-96 -43 -188 -43h-371zM299 178h160q75 0 136.5 54t76.5 126l151 717q4 17 4 35t-5 42q-5 28 -17 49t-40 36.5 t-69 15.5h-168z" />
<glyph unicode="e" horiz-adv-x="770" d="M59 0l303 1434h652l-37 -181h-449l-96 -446h334l-37 -180h-334l-96 -449h449l-37 -178h-652z" />
<glyph unicode="f" horiz-adv-x="770" d="M59 0l303 1434h652l-37 -181h-449l-96 -446h334l-37 -180h-334l-133 -627h-203z" />
<glyph unicode="g" d="M130 266q-1 20 -1 34q0 18 1 29q3 19 5 29l152 717q22 87 82 174q63 89 157 137t207 48q112 0 186.5 -48t100.5 -137q11 -39 13 -83q1 -19 1 -33q0 -18 -2 -29q-2 -19 -4 -29l-18 -90h-205l18 90q3 14 3.5 31.5t-4.5 45t-17 49t-40 37t-69 15.5q-50 0 -91.5 -22.5 t-65 -55.5t-35.5 -58.5t-15 -41.5l-151 -717q-2 -13 -3 -31t4.5 -45.5t17.5 -49.5t40.5 -38t69.5 -16t76 16t56.5 37.5t38.5 49t24 45.5t10 32l57 269h-133l37 180h338l-94 -449q-22 -87 -82 -174q-64 -89 -158 -136.5t-207 -47.5t-187.5 47.5t-99.5 136.5q-11 39 -13 82z " />
<glyph unicode="h" d="M59 0l303 1434h203l-133 -627h334l133 627h205l-303 -1434h-205l133 627h-334l-133 -627h-203z" />
<glyph unicode="i" horiz-adv-x="321" d="M59 0l303 1434h203l-303 -1434h-203z" />
<glyph unicode="j" d="M130 266q-1 20 -1 34q0 18 1 29q3 19 5 29l19 91h202l-18 -91q-2 -13 -3 -31t4.5 -45.5t17.5 -49.5t40.5 -38t69.5 -16t76 16t56.5 37.5t38.5 49t24 45.5t10 32l227 1076h205l-227 -1076q-22 -87 -82 -174q-64 -89 -158 -136.5t-207 -47.5t-187.5 47.5t-99.5 136.5 q-11 39 -13 82z" />
<glyph unicode="k" horiz-adv-x="937" d="M59 0l303 1434h203l-135 -637l512 637h238l-574 -717q48 -132 142.5 -378.5t128.5 -338.5h-230l-201 535q-9 -10 -44 -51t-52 -62l-88 -422h-203z" />
<glyph unicode="l" horiz-adv-x="679" d="M59 0l303 1434h203l-266 -1256h358l-36 -178h-562z" />
<glyph unicode="m" horiz-adv-x="1218" d="M59 0l303 1434h275l41 -1104l510 1104h274l-303 -1434h-205l185 877q-49 -108 -189 -409t-215 -468h-254l-35 877l-184 -877h-203z" />
<glyph unicode="n" d="M59 0l303 1434h246l101 -902l190 902h205l-303 -1434h-248l-100 901l-191 -901h-203z" />
<glyph unicode="o" d="M130 266q-1 19 -1 34q-1 18 1 29q2 19 5 29l152 717q22 87 82 174q63 89 157 137t207 48q112 0 186.5 -48t100.5 -137q11 -39 13 -83q1 -19 1 -33q0 -18 -2 -29q-2 -19 -4 -29l-151 -717q-22 -87 -82 -174q-64 -89 -158 -136.5t-207 -47.5t-187.5 47.5t-99.5 136.5 q-11 38 -13 82zM335 327v-6q1 -15 5 -39q6 -28 17.5 -50t40 -38t69.5 -16t76 16t56.5 37.5t38.5 49t24 45.5t10 32l151 717q4 17 4 35t-5 42q-5 28 -17 49t-40 36.5t-69 15.5q-50 0 -91.5 -22.5t-65 -55.5t-35.5 -58.5t-15 -41.5l-151 -717q-2 -13 -3 -31z" />
<glyph unicode="p" d="M59 0l303 1434h371q13 0 34 -2t64.5 -15t77.5 -35q67 -46 103 -131q19 -47 19 -109q0 -51 -13 -112q-17 -82 -51.5 -148.5t-73.5 -107t-87.5 -71t-86 -44.5t-78 -22t-55 -9t-23.5 -1h-168l-133 -627h-203zM432 807h168q39 0 94 29q89 48 119 194q11 46 11 83 q0 79 -50 114q-17 12 -36.5 18.5t-30.5 6.5l-11 1h-168z" />
<glyph unicode="q" d="M130 265q-1 21 -1 37t1 26q3 20 5 30l152 717q22 87 82 174q63 89 157 137t207 48q112 0 186.5 -48t100.5 -137q11 -39 13 -83q1 -19 1 -33q0 -18 -2 -29q-2 -19 -4 -29l-151 -717q-22 -87 -82 -174q-105 -139 -273 -176h10l-32 -153h-205l33 153h10q-72 19 -123 66 t-70 110q-12 38 -15 81zM336 326v-8q0 -21 7 -50q9 -37 28 -59l30 139h205l-31 -139q30 22 54.5 59.5t32 57.5t10.5 32l151 717q4 17 4 35q0 16 -5 42q-5 27 -17 48.5t-40 37t-69 15.5q-50 0 -91.5 -22.5t-65 -55.5t-35.5 -58.5t-15 -41.5l-151 -717q0 -9 -2 -32z" />
<glyph unicode="r" d="M59 0l303 1434h371q6 0 14.5 -0.5t34 -4t47.5 -10.5t54 -20.5t53.5 -34t47 -50.5t34 -70.5t13.5 -93.5q1 -12 1 -24q0 -44 -14 -96q-39 -193 -191 -309q78 -75 78 -187q0 -40 -10 -85l-94 -449h-205l94 449q4 17 4 34q0 46 -28 87q-38 57 -103 57h-168l-133 -627h-203z M432 807h168q21 0 49 11t61 34.5t61.5 70t41.5 107.5q11 46 11 83q0 79 -50 114q-17 12 -36.5 18.5t-30.5 6.5l-11 1h-168z" />
<glyph unicode="s" d="M16 266q-1 22 -1.5 37.5t1.5 25.5q2 20 4 29l19 91h203l-19 -91q-2 -13 -3 -31t4.5 -45.5t17.5 -49.5t40.5 -38t69.5 -16t76 16t56.5 37.5t38.5 49t24 45.5t10 32l18 88q1 5 0.5 17t-8.5 34.5t-23 44.5t-48.5 46.5t-79.5 42.5q-61 23 -108 55t-74.5 63t-46 66t-25 62 t-9 53.5t-1.5 37.5t2 17l18 90q22 87 82 174q63 89 157 137t207 48q112 0 186.5 -48t100.5 -137q11 -39 13 -83q1 -19 0 -33v-29q-2 -19 -5 -29l-18 -90h-205l19 90q3 14 3.5 31.5t-4.5 45t-17 49t-40 37t-69 15.5q-50 0 -91.5 -22.5t-65 -55.5t-35.5 -58.5t-15 -41.5 l-19 -90q-1 -8 0 -20t9.5 -34.5t24 -44t49 -45t79.5 -40.5q63 -23 111.5 -55t76 -62.5t45.5 -65.5t24.5 -61.5t8 -53.5t-0.5 -37t-3 -17l-18 -91q-22 -87 -82 -174q-64 -89 -158 -136.5t-207 -47.5t-187 47.5t-99 136.5q-11 39 -13 82z" />
<glyph unicode="t" d="M326 1253l36 181h742l-37 -181h-268l-267 -1253h-204l266 1253h-268z" />
<glyph unicode="u" d="M130 266q-1 19 -1 34q-1 18 1 29q2 19 5 29l227 1076h203l-227 -1076q-2 -13 -3 -31t4.5 -45.5t17.5 -49.5t40.5 -38t69.5 -16t76 16t56.5 37.5t38.5 49t24 45.5t10 32l227 1076h205l-227 -1076q-22 -87 -82 -174q-64 -89 -158 -136.5t-207 -47.5t-187.5 47.5 t-99.5 136.5q-11 38 -13 82z" />
<glyph unicode="v" horiz-adv-x="1024" d="M362 1434h207l4 -1139l488 1139h207l-611 -1434h-290z" />
<glyph unicode="w" horiz-adv-x="1474" d="M336 0l26 1434h207l-20 -1014l381 1014h221l-18 -1012q63 169 189.5 506t188.5 506h207l-534 -1434h-264l16 891q-55 -150 -166.5 -446t-167.5 -445h-266z" />
<glyph unicode="x" horiz-adv-x="927" d="M59 0l447 717l-144 717h220l90 -451q46 76 140 225.5t140 225.5h219l-446 -717l143 -717h-219l-92 451l-278 -451h-220z" />
<glyph unicode="y" horiz-adv-x="927" d="M362 0l148 698l-148 736h220l90 -451q46 76 140 225.5t140 225.5h219l-458 -736l-148 -698h-203z" />
<glyph unicode="z" d="M59 0l41 197l754 1056h-528l36 181h742l-41 -197l-754 -1059h529l-37 -178h-742z" />
<glyph unicode="{" horiz-adv-x="643" d="M215 721l88 59q29 29 64.5 104t60.5 191q23 107 89.5 189t168.5 127q96 43 201 43l-43 -181q-52 1 -105 -24q-85 -45 -108 -154q-46 -218 -150 -358q43 -143 -2 -359q-23 -111 43 -153q18 -11 43 -18t41 -8l15 -1l-37 -178q-105 0 -185 43q-83 46 -114.5 127.5 t-8.5 187.5q24 138 21.5 204t-18.5 91z" />
<glyph unicode="|" horiz-adv-x="321" d="M35 -111l350 1647h203l-350 -1647h-203z" />
<glyph unicode="}" horiz-adv-x="643" d="M59 0l43 178q52 2 105 27q85 45 108 153q46 219 150 359q-43 143 2 358q23 112 -43 154q-18 11 -42.5 17t-39.5 6l-16 1l36 181q105 0 185 -43q82 -46 114 -128t9 -188q-17 -80 -20 -146.5t2.5 -99t15.5 -49.5l63 -59l-92 -68q-26 -26 -61 -102t-60 -193 q-23 -106 -90 -187.5t-168 -127.5q-96 -43 -201 -43z" />
<glyph unicode="&#xa1;" horiz-adv-x="321" d="M68 47l208 979l60 49h110l-217 -1026l-65 -53zM344 1343q7 37 43.5 64t77.5 27t65.5 -27t16.5 -64q-7 -37 -42.5 -62.5t-76.5 -25.5q-42 0 -66.5 26t-17.5 62z" />
<glyph unicode="&#xad;" d="M193 627l36 180h742l-37 -180h-741z" />
<glyph unicode="&#xba;" horiz-adv-x="641" d="M287.5 1041.5q0.5 15.5 1 27t1.5 20t1 9.5l14 67q25 76 60 127q45 66 113 104t145 38q82 0 133.5 -36.5t68.5 -105.5q7 -30 7.5 -61t-1.5 -45.5t-4 -20.5l-14 -67q0 -5 -5 -21t-19 -47t-33 -59q-45 -67 -113 -104.5t-147 -37.5q-78 0 -131 38t-70 104q-4 18 -6 36.5 t-1.5 34zM455 1072.5q-1 -22.5 4 -46.5q15 -55 65 -55q55 0 92 57q10 16 18 33.5t10 26.5l3 10l15 65v11q6 49 0 63q-15 55 -68 55t-90 -57q-10 -16 -18.5 -33.5t-11.5 -27.5l-3 -9l-12 -65q-3 -5 -4 -27.5z" />
<glyph unicode="&#xbf;" horiz-adv-x="770" d="M131 340l16 82q4 17 10.5 34.5t25.5 59t55.5 88t85.5 86.5q56 45 95 107.5t51 102.5l11 40l29 135h205l-29 -135q-4 -16 -7.5 -28t-23 -60t-43.5 -89t-70 -97.5t-102 -102.5q-30 -25 -52.5 -60.5t-30 -56t-7.5 -24.5l-16 -82q-3 -10 -3.5 -32t3.5 -52.5t26.5 -53 t61.5 -22.5t70.5 21.5t50 55t26 50.5t11.5 33l16 82h203l-17 -82q-21 -85 -71 -162q-59 -86 -142.5 -132t-183.5 -46t-166 46t-86 132q-21 86 -2 162zM567 1343q7 37 43.5 64t77.5 27t66 -27t18 -64q-7 -36 -43 -62t-78 -26t-66.5 26t-17.5 62z" />
<glyph unicode="&#xc0;" horiz-adv-x="1024" d="M59 0l611 1434h291l4 -1434h-207l-2 449h-299l-191 -449h-207zM535 627h221l-2 514q-15 -35 -219 -514zM639 1671l68 152l383 -144l-43 -104z" />
<glyph unicode="&#xc1;" horiz-adv-x="1024" d="M59 0l611 1434h291l4 -1434h-207l-2 449h-299l-191 -449h-207zM535 627h221l-2 514q-15 -35 -219 -514zM645 1577l2 102l445 144l2 -152z" />
<glyph unicode="&#xc2;" horiz-adv-x="1024" d="M59 0l611 1434h291l4 -1434h-207l-2 449h-299l-191 -449h-207zM535 627h221l-2 514q-15 -35 -219 -514zM621 1669l280 180l205 -180l-145 -151l-109 96l-152 -96z" />
<glyph unicode="&#xc4;" horiz-adv-x="1024" d="M59 0l611 1434h291l4 -1434h-207l-2 449h-299l-191 -449h-207zM535 627h221l-2 514q-15 -35 -219 -514zM625 1651q7 37 43 63.5t77 26.5t66 -26.5t18 -63.5t-44 -63.5t-78 -26.5t-65.5 26.5t-16.5 63.5zM895 1651q8 37 43 63.5t76 26.5q43 0 67.5 -26.5t16.5 -63.5 t-44 -63.5t-79 -26.5q-41 0 -64.5 26.5t-15.5 63.5z" />
<glyph unicode="&#xc8;" horiz-adv-x="770" d="M59 0l303 1434h652l-37 -181h-449l-96 -446h334l-37 -180h-334l-96 -449h449l-37 -178h-652zM492 1671l67 152l383 -144l-43 -102z" />
<glyph unicode="&#xc9;" horiz-adv-x="770" d="M59 0l303 1434h652l-37 -181h-449l-96 -446h334l-37 -180h-334l-96 -449h449l-37 -178h-652zM492 1577l2 102l444 144l2 -152z" />
<glyph unicode="&#xca;" horiz-adv-x="770" d="M59 0l303 1434h652l-37 -181h-449l-96 -446h334l-37 -180h-334l-96 -449h449l-37 -178h-652zM485 1669l281 180l205 -180l-146 -151l-108 96l-152 -96z" />
<glyph unicode="&#xcb;" horiz-adv-x="770" d="M59 0l303 1434h652l-37 -181h-449l-96 -446h334l-37 -180h-334l-96 -449h449l-37 -178h-652zM494 1651q7 37 43 63.5t77 26.5t66 -26.5t18 -63.5q-7 -36 -44 -63t-79 -27q-41 0 -65 26.5t-16 63.5zM764 1651q8 37 43 63.5t76 26.5q43 0 67.5 -26.5t16.5 -63.5t-44 -63.5 t-79 -26.5q-41 0 -64.5 26.5t-15.5 63.5z" />
<glyph unicode="&#xcc;" horiz-adv-x="448" d="M111 0l303 1434h202l-303 -1434h-202zM354 1671l68 152l383 -144l-43 -104z" />
<glyph unicode="&#xcd;" horiz-adv-x="448" d="M111 0l303 1434h202l-303 -1434h-202zM354 1577l2 102l445 144l2 -152z" />
<glyph unicode="&#xce;" horiz-adv-x="505" d="M147 0l304 1434h202l-303 -1434h-203zM365 1669l280 180l205 -180l-145 -151l-109 96l-152 -96z" />
<glyph unicode="&#xcf;" horiz-adv-x="493" d="M145 0l304 1434h202l-303 -1434h-203zM360 1651q7 37 43.5 63.5t77.5 26.5t66 -26.5t18 -63.5q-7 -36 -44 -63t-79 -27q-41 0 -65.5 26.5t-16.5 63.5zM631 1651q8 37 43 63.5t76 26.5q43 0 67.5 -26.5t16.5 -63.5t-44 -63.5t-79 -26.5q-41 0 -64.5 26.5t-15.5 63.5z" />
<glyph unicode="&#xd0;" horiz-adv-x="995" d="M193 627l36 180h136l133 627h370q112 0 186.5 -48t100.5 -137q11 -39 13 -82.5t-0.5 -62.5t-4.5 -29l-151 -717q-23 -106 -90 -187.5t-168 -127.5q-96 -43 -189 -43h-370l133 627h-135zM434 178h160q57 0 98 16.5t63.5 46t33.5 56t18 61.5l151 717v4q1 4 1.5 9.5t1 13.5 t0.5 17t-0.5 18t-2 19t-4.5 18q-23 79 -123 79h-167l-97 -446h135l-36 -180h-136z" />
<glyph unicode="&#xd2;" d="M130 266.5q-2 43.5 0.5 62.5t4.5 29l152 717q22 87 82 174q63 89 157 137t207 48q112 0 186.5 -48t100.5 -137q11 -39 13 -82.5t-0.5 -62.5t-4.5 -29l-151 -717q-22 -87 -82 -174q-64 -89 -158 -136.5t-207 -47.5t-187.5 47.5t-99.5 136.5q-11 39 -13 82.5zM336 326.5 q-1 -18.5 4 -45.5t17 -49t40.5 -38t69.5 -16q50 0 91 23t64.5 56t36 59t15.5 42l151 717q2 13 3 31t-4.5 45t-17.5 48.5t-40.5 37.5t-69.5 16q-50 0 -91 -22.5t-63.5 -55t-34.5 -58t-15 -42.5l-152 -717q-3 -13 -4 -31.5zM557 1671l68 152l383 -144l-43 -104z" />
<glyph unicode="&#xd3;" d="M130 266.5q-2 43.5 0.5 62.5t4.5 29l152 717q22 87 82 174q63 89 157 137t207 48q112 0 186.5 -48t100.5 -137q11 -39 13 -82.5t-0.5 -62.5t-4.5 -29l-151 -717q-22 -87 -82 -174q-64 -89 -158 -136.5t-207 -47.5t-187.5 47.5t-99.5 136.5q-11 39 -13 82.5zM335 327 q-1 -18 4.5 -45.5t17.5 -49.5t40.5 -38t69.5 -16t76 16t56.5 37.5t38.5 49t24 45.5t10 32l151 717q3 14 3.5 31.5t-4.5 45t-17 49t-40 37t-69 15.5q-50 0 -91.5 -22.5t-65 -55.5t-35.5 -58.5t-15 -41.5l-151 -717q-2 -13 -3 -31zM563 1577l2 102l445 144l2 -152z" />
<glyph unicode="&#xd4;" d="M130 266.5q-2 43.5 0.5 62.5t4.5 29l152 717q22 87 82 174q63 89 157 137t207 48q112 0 186.5 -48t100.5 -137q11 -39 13 -82.5t-0.5 -62.5t-4.5 -29l-151 -717q-22 -87 -82 -174q-64 -89 -158 -136.5t-207 -47.5t-187.5 47.5t-99.5 136.5q-11 39 -13 82.5zM335 327 q-1 -18 4.5 -45.5t17.5 -49.5t40.5 -38t69.5 -16t76 16t56.5 37.5t38.5 49t24 45.5t10 32l151 717q3 14 3.5 31.5t-4.5 45t-17 49t-40 37t-69 15.5q-50 0 -91.5 -22.5t-65 -55.5t-35.5 -58.5t-15 -41.5l-151 -717q-2 -13 -3 -31zM541 1669l280 180l205 -180l-145 -151 l-109 96l-151 -96z" />
<glyph unicode="&#xd6;" d="M130 266.5q-2 43.5 0.5 62.5t4.5 29l152 717q22 87 82 174q63 89 157 137t207 48q112 0 186.5 -48t100.5 -137q11 -39 13 -82.5t-0.5 -62.5t-4.5 -29l-151 -717q-22 -87 -82 -174q-64 -89 -158 -136.5t-207 -47.5t-187.5 47.5t-99.5 136.5q-11 39 -13 82.5zM335 327 q-1 -18 4.5 -45.5t17.5 -49.5t40.5 -38t69.5 -16t76 16t56.5 37.5t38.5 49t24 45.5t10 32l151 717q3 14 3.5 31.5t-4.5 45t-17 49t-40 37t-69 15.5q-50 0 -91.5 -22.5t-65 -55.5t-35.5 -58.5t-15 -41.5l-151 -717q-2 -13 -3 -31zM539 1651q7 37 43 63.5t77 26.5t66 -26.5 t18 -63.5t-44 -63.5t-78 -26.5t-65.5 26.5t-16.5 63.5zM809 1651q8 37 43 63.5t76 26.5q43 0 67.5 -26.5t16.5 -63.5t-44 -63.5t-79 -26.5q-41 0 -64.5 26.5t-15.5 63.5z" />
<glyph unicode="&#xd8;" d="M130 266.5q-2 43.5 0.5 62.5t4.5 29l152 717q22 87 82 174q63 89 157 137t207 48q112 0 186.5 -48t100.5 -137q11 -39 13 -82.5t-0.5 -62.5t-4.5 -29l-151 -717q-22 -87 -82 -174q-64 -89 -158 -136.5t-207 -47.5t-187.5 47.5t-99.5 136.5q-11 39 -13 82.5zM383 199 q44 -21 84 -21q99 0 160 82q15 18 25.5 42t15.5 40l4 16l116 551zM383 571q63 113 188.5 335.5t188.5 334.5q-18 12 -64 12q-99 0 -161 -79q-14 -18 -25.5 -43t-16 -39.5t-4.5 -16.5z" />
<glyph unicode="&#xd9;" d="M130 266.5q-2 43.5 0.5 62.5t4.5 29l227 1076h205l-227 -1076q-3 -13 -4 -31.5t4 -45.5t17 -49t40.5 -38t69.5 -16q50 0 91 23t64.5 56t36 59t15.5 42l227 1076h203l-227 -1076q-22 -87 -82 -174q-64 -89 -158 -136.5t-207 -47.5t-187.5 47.5t-99.5 136.5 q-11 39 -13 82.5zM557 1671l68 152l383 -144l-43 -104z" />
<glyph unicode="&#xda;" d="M130 266.5q-2 43.5 0.5 62.5t4.5 29l227 1076h203l-227 -1076q-2 -13 -3 -31t4.5 -45.5t17.5 -49.5t40.5 -38t69.5 -16t76 16t56.5 37.5t38.5 49t24 45.5t10 32l227 1076h205l-227 -1076q-22 -87 -82 -174q-64 -89 -158 -136.5t-207 -47.5t-187.5 47.5t-99.5 136.5 q-11 39 -13 82.5zM563 1577l2 102l445 144l2 -152z" />
<glyph unicode="&#xdb;" d="M130 266.5q-2 43.5 0.5 62.5t4.5 29l227 1076h203l-227 -1076q-2 -13 -3 -31t4.5 -45.5t17.5 -49.5t40.5 -38t69.5 -16t76 16t56.5 37.5t38.5 49t24 45.5t10 32l227 1076h205l-227 -1076q-22 -87 -82 -174q-64 -89 -158 -136.5t-207 -47.5t-187.5 47.5t-99.5 136.5 q-11 39 -13 82.5zM541 1669l280 180l205 -180l-145 -151l-109 96l-151 -96z" />
<glyph unicode="&#xdc;" d="M130 266.5q-2 43.5 0.5 62.5t4.5 29l227 1076h203l-227 -1076q-2 -13 -3 -31t4.5 -45.5t17.5 -49.5t40.5 -38t69.5 -16t76 16t56.5 37.5t38.5 49t24 45.5t10 32l227 1076h205l-227 -1076q-22 -87 -82 -174q-64 -89 -158 -136.5t-207 -47.5t-187.5 47.5t-99.5 136.5 q-11 39 -13 82.5z" />
<glyph unicode="&#xdd;" horiz-adv-x="927" d="M362 0l148 698l-148 736h220l90 -451q46 76 140 225.5t140 225.5h219l-458 -736l-148 -698h-203zM588 1577l2 102l444 144l2 -152z" />
<glyph unicode="&#xdf;" d="M59 0l303 1434h332q6 0 14.5 -0.5t33.5 -4t47 -11t53 -21t52.5 -34t46 -50.5t33 -70.5t13 -93t-13.5 -119.5q-38 -183 -170 -295q130 -113 82 -332q-17 -82 -52 -149t-73.5 -107.5t-87.5 -71t-86.5 -44t-78 -21.5t-54.5 -9t-23 -1h-57l37 178h51l3 1q4 1 9 1q58 10 88 29 q89 48 119 194q11 65 4 108.5t-30.5 69t-46.5 36t-44 10.5h-51l37 178h24q17 0 43.5 13t57.5 38t57.5 71t38.5 103q23 104 -14 163.5t-82 59.5h-146l-266 -1253h-203z" />
<glyph unicode="&#xe0;" horiz-adv-x="1024" d="M59 0l611 1434h291l4 -1434h-207l-2 449h-299l-191 -449h-207zM535 627h221l-2 514q-15 -35 -219 -514zM639 1671l68 152l383 -144l-43 -104z" />
<glyph unicode="&#xe1;" horiz-adv-x="1024" d="M59 0l611 1434h291l4 -1434h-207l-2 449h-299l-191 -449h-207zM535 627h221l-2 514q-15 -35 -219 -514zM645 1577l2 102l445 144l2 -152z" />
<glyph unicode="&#xe2;" horiz-adv-x="1024" d="M59 0l611 1434h291l4 -1434h-207l-2 449h-299l-191 -449h-207zM535 627h221l-2 514q-15 -35 -219 -514zM621 1669l280 180l205 -180l-145 -151l-109 96l-152 -96z" />
<glyph unicode="&#xe4;" horiz-adv-x="1024" d="M59 0l611 1434h291l4 -1434h-207l-2 449h-299l-191 -449h-207zM535 627h221l-2 514q-15 -35 -219 -514zM625 1651q7 37 43 63.5t77 26.5t66 -26.5t18 -63.5t-44 -63.5t-78 -26.5t-65.5 26.5t-16.5 63.5zM895 1651q8 37 43 63.5t76 26.5q43 0 67.5 -26.5t16.5 -63.5 t-44 -63.5t-79 -26.5q-41 0 -64.5 26.5t-15.5 63.5z" />
<glyph unicode="&#xe8;" horiz-adv-x="770" d="M59 0l303 1434h652l-37 -181h-449l-96 -446h334l-37 -180h-334l-96 -449h449l-37 -178h-652zM492 1671l67 152l383 -144l-43 -102z" />
<glyph unicode="&#xe9;" horiz-adv-x="770" d="M59 0l303 1434h652l-37 -181h-449l-96 -446h334l-37 -180h-334l-96 -449h449l-37 -178h-652zM492 1577l2 102l444 144l2 -152z" />
<glyph unicode="&#xea;" horiz-adv-x="770" d="M59 0l303 1434h652l-37 -181h-449l-96 -446h334l-37 -180h-334l-96 -449h449l-37 -178h-652zM485 1669l281 180l205 -180l-146 -151l-108 96l-152 -96z" />
<glyph unicode="&#xeb;" horiz-adv-x="770" d="M59 0l303 1434h652l-37 -181h-449l-96 -446h334l-37 -180h-334l-96 -449h449l-37 -178h-652zM494 1651q7 37 43 63.5t77 26.5t66 -26.5t18 -63.5q-7 -36 -44 -63t-79 -27q-41 0 -65 26.5t-16 63.5zM764 1651q8 37 43 63.5t76 26.5q43 0 67.5 -26.5t16.5 -63.5t-44 -63.5 t-79 -26.5q-41 0 -64.5 26.5t-15.5 63.5z" />
<glyph unicode="&#xec;" horiz-adv-x="448" d="M111 0l303 1434h202l-303 -1434h-202zM354 1671l68 152l383 -144l-43 -104z" />
<glyph unicode="&#xed;" horiz-adv-x="448" d="M111 0l303 1434h202l-303 -1434h-202zM354 1577l2 102l445 144l2 -152z" />
<glyph unicode="&#xee;" horiz-adv-x="505" d="M147 0l304 1434h202l-303 -1434h-203zM365 1669l280 180l205 -180l-145 -151l-109 96l-152 -96z" />
<glyph unicode="&#xef;" horiz-adv-x="493" d="M145 0l304 1434h202l-303 -1434h-203zM360 1651q7 37 43.5 63.5t77.5 26.5t66 -26.5t18 -63.5q-7 -36 -44 -63t-79 -27q-41 0 -65.5 26.5t-16.5 63.5zM631 1651q8 37 43 63.5t76 26.5q43 0 67.5 -26.5t16.5 -63.5t-44 -63.5t-79 -26.5q-41 0 -64.5 26.5t-15.5 63.5z" />
<glyph unicode="&#xf2;" d="M130 266.5q-2 43.5 0.5 62.5t4.5 29l152 717q22 87 82 174q63 89 157 137t207 48q112 0 186.5 -48t100.5 -137q11 -39 13 -82.5t-0.5 -62.5t-4.5 -29l-151 -717q-22 -87 -82 -174q-64 -89 -158 -136.5t-207 -47.5t-187.5 47.5t-99.5 136.5q-11 39 -13 82.5zM336 326.5 q-1 -18.5 4 -45.5t17 -49t40.5 -38t69.5 -16q50 0 91 23t64.5 56t36 59t15.5 42l151 717q2 13 3 31t-4.5 45t-17.5 48.5t-40.5 37.5t-69.5 16q-50 0 -91 -22.5t-63.5 -55t-34.5 -58t-15 -42.5l-152 -717q-3 -13 -4 -31.5zM557 1671l68 152l383 -144l-43 -104z" />
<glyph unicode="&#xf3;" d="M130 266.5q-2 43.5 0.5 62.5t4.5 29l152 717q22 87 82 174q63 89 157 137t207 48q112 0 186.5 -48t100.5 -137q11 -39 13 -82.5t-0.5 -62.5t-4.5 -29l-151 -717q-22 -87 -82 -174q-64 -89 -158 -136.5t-207 -47.5t-187.5 47.5t-99.5 136.5q-11 39 -13 82.5zM335 327 q-1 -18 4.5 -45.5t17.5 -49.5t40.5 -38t69.5 -16t76 16t56.5 37.5t38.5 49t24 45.5t10 32l151 717q3 14 3.5 31.5t-4.5 45t-17 49t-40 37t-69 15.5q-50 0 -91.5 -22.5t-65 -55.5t-35.5 -58.5t-15 -41.5l-151 -717q-2 -13 -3 -31zM563 1577l2 102l445 144l2 -152z" />
<glyph unicode="&#xf4;" d="M130 266.5q-2 43.5 0.5 62.5t4.5 29l152 717q22 87 82 174q63 89 157 137t207 48q112 0 186.5 -48t100.5 -137q11 -39 13 -82.5t-0.5 -62.5t-4.5 -29l-151 -717q-22 -87 -82 -174q-64 -89 -158 -136.5t-207 -47.5t-187.5 47.5t-99.5 136.5q-11 39 -13 82.5zM335 327 q-1 -18 4.5 -45.5t17.5 -49.5t40.5 -38t69.5 -16t76 16t56.5 37.5t38.5 49t24 45.5t10 32l151 717q3 14 3.5 31.5t-4.5 45t-17 49t-40 37t-69 15.5q-50 0 -91.5 -22.5t-65 -55.5t-35.5 -58.5t-15 -41.5l-151 -717q-2 -13 -3 -31zM541 1669l280 180l205 -180l-145 -151 l-109 96l-151 -96z" />
<glyph unicode="&#xf6;" d="M130 266.5q-2 43.5 0.5 62.5t4.5 29l152 717q22 87 82 174q63 89 157 137t207 48q112 0 186.5 -48t100.5 -137q11 -39 13 -82.5t-0.5 -62.5t-4.5 -29l-151 -717q-22 -87 -82 -174q-64 -89 -158 -136.5t-207 -47.5t-187.5 47.5t-99.5 136.5q-11 39 -13 82.5zM335 327 q-1 -18 4.5 -45.5t17.5 -49.5t40.5 -38t69.5 -16t76 16t56.5 37.5t38.5 49t24 45.5t10 32l151 717q3 14 3.5 31.5t-4.5 45t-17 49t-40 37t-69 15.5q-50 0 -91.5 -22.5t-65 -55.5t-35.5 -58.5t-15 -41.5l-151 -717q-2 -13 -3 -31zM539 1651q7 37 43 63.5t77 26.5t66 -26.5 t18 -63.5t-44 -63.5t-78 -26.5t-65.5 26.5t-16.5 63.5zM809 1651q8 37 43 63.5t76 26.5q43 0 67.5 -26.5t16.5 -63.5t-44 -63.5t-79 -26.5q-41 0 -64.5 26.5t-15.5 63.5z" />
<glyph unicode="&#xf8;" d="M130 266.5q-2 43.5 0.5 62.5t4.5 29l152 717q22 87 82 174q63 89 157 137t207 48q112 0 186.5 -48t100.5 -137q11 -39 13 -82.5t-0.5 -62.5t-4.5 -29l-151 -717q-22 -87 -82 -174q-64 -89 -158 -136.5t-207 -47.5t-187.5 47.5t-99.5 136.5q-11 39 -13 82.5zM383 199 q44 -21 84 -21q99 0 160 82q15 18 25.5 42t15.5 40l4 16l116 551zM383 571q63 113 188.5 335.5t188.5 334.5q-18 12 -64 12q-99 0 -161 -79q-14 -18 -25.5 -43t-16 -39.5t-4.5 -16.5z" />
<glyph unicode="&#xf9;" d="M130 266.5q-2 43.5 0.5 62.5t4.5 29l227 1076h205l-227 -1076q-3 -13 -4 -31.5t4 -45.5t17 -49t40.5 -38t69.5 -16q50 0 91 23t64.5 56t36 59t15.5 42l227 1076h203l-227 -1076q-22 -87 -82 -174q-64 -89 -158 -136.5t-207 -47.5t-187.5 47.5t-99.5 136.5 q-11 39 -13 82.5zM557 1671l68 152l383 -144l-43 -104z" />
<glyph unicode="&#xfa;" d="M130 266.5q-2 43.5 0.5 62.5t4.5 29l227 1076h203l-227 -1076q-2 -13 -3 -31t4.5 -45.5t17.5 -49.5t40.5 -38t69.5 -16t76 16t56.5 37.5t38.5 49t24 45.5t10 32l227 1076h205l-227 -1076q-22 -87 -82 -174q-64 -89 -158 -136.5t-207 -47.5t-187.5 47.5t-99.5 136.5 q-11 39 -13 82.5zM563 1577l2 102l445 144l2 -152z" />
<glyph unicode="&#xfb;" d="M130 266.5q-2 43.5 0.5 62.5t4.5 29l227 1076h203l-227 -1076q-2 -13 -3 -31t4.5 -45.5t17.5 -49.5t40.5 -38t69.5 -16t76 16t56.5 37.5t38.5 49t24 45.5t10 32l227 1076h205l-227 -1076q-22 -87 -82 -174q-64 -89 -158 -136.5t-207 -47.5t-187.5 47.5t-99.5 136.5 q-11 39 -13 82.5zM541 1669l280 180l205 -180l-145 -151l-109 96l-151 -96z" />
<glyph unicode="&#xfc;" d="M130 266.5q-2 43.5 0.5 62.5t4.5 29l227 1076h203l-227 -1076q-2 -13 -3 -31t4.5 -45.5t17.5 -49.5t40.5 -38t69.5 -16t76 16t56.5 37.5t38.5 49t24 45.5t10 32l227 1076h205l-227 -1076q-22 -87 -82 -174q-64 -89 -158 -136.5t-207 -47.5t-187.5 47.5t-99.5 136.5 q-11 39 -13 82.5z" />
<glyph unicode="&#xfd;" horiz-adv-x="927" d="M362 0l148 698l-148 736h220l90 -451q46 76 140 225.5t140 225.5h219l-458 -736l-148 -698h-203zM588 1577l2 102l444 144l2 -152z" />
<glyph unicode="&#xff;" horiz-adv-x="927" d="M362 0l148 698l-148 736h220l90 -451q46 76 140 225.5t140 225.5h219l-458 -736l-148 -698h-203zM571 1651q7 37 43.5 63.5t77.5 26.5t66 -26.5t18 -63.5q-7 -36 -44 -63t-79 -27q-41 0 -65.5 26.5t-16.5 63.5zM842 1651q8 37 43 63.5t76 26.5q42 0 66.5 -26.5 t16.5 -63.5t-43.5 -63.5t-78.5 -26.5q-41 0 -64.5 26.5t-15.5 63.5z" />
<glyph unicode="&#x152;" horiz-adv-x="1218" d="M130 266.5q-2 43.5 0.5 62.5t4.5 29l152 717q22 87 82 174q63 89 157 137t207 48h729l-37 -181h-493l-96 -446h358l-37 -180h-358l-97 -449h494l-37 -178h-729q-113 0 -187.5 47.5t-99.5 136.5q-11 39 -13 82.5zM335 327q-1 -18 4.5 -45.5t17.5 -49.5t40.5 -38t69.5 -16 h33l229 1075h-33q-50 0 -91.5 -22.5t-65 -55.5t-35.5 -58.5t-15 -41.5l-151 -717q-2 -13 -3 -31z" />
<glyph unicode="&#x178;" horiz-adv-x="927" d="M362 0l148 698l-148 736h220l90 -451q46 76 140 225.5t140 225.5h219l-458 -736l-148 -698h-203zM571 1651q7 37 43.5 63.5t77.5 26.5t66 -26.5t18 -63.5q-7 -36 -44 -63t-79 -27q-41 0 -65.5 26.5t-16.5 63.5zM842 1651q8 37 43 63.5t76 26.5q42 0 66.5 -26.5 t16.5 -63.5t-43.5 -63.5t-78.5 -26.5q-41 0 -64.5 26.5t-15.5 63.5z" />
<glyph unicode="&#x2000;" horiz-adv-x="924" />
<glyph unicode="&#x2001;" horiz-adv-x="1849" />
<glyph unicode="&#x2002;" horiz-adv-x="924" />
<glyph unicode="&#x2003;" horiz-adv-x="1849" />
<glyph unicode="&#x2004;" horiz-adv-x="616" />
<glyph unicode="&#x2005;" horiz-adv-x="462" />
<glyph unicode="&#x2006;" horiz-adv-x="308" />
<glyph unicode="&#x2007;" horiz-adv-x="308" />
<glyph unicode="&#x2008;" horiz-adv-x="231" />
<glyph unicode="&#x2009;" horiz-adv-x="369" />
<glyph unicode="&#x200a;" horiz-adv-x="102" />
<glyph unicode="&#x2010;" d="M193 627l36 180h742l-37 -180h-741z" />
<glyph unicode="&#x2011;" d="M193 627l36 180h742l-37 -180h-741z" />
<glyph unicode="&#x2012;" d="M193 627l36 180h742l-37 -180h-741z" />
<glyph unicode="&#x2013;" horiz-adv-x="1030" d="M193 627l36 180h912l-37 -180h-911z" />
<glyph unicode="&#x2014;" horiz-adv-x="2130" d="M193 627l95 180h1953l-97 -180h-1951z" />
<glyph unicode="&#x2022;" horiz-adv-x="411" d="M211 717q12 56 63.5 95.5t112.5 39.5q60 0 94.5 -40t22.5 -95q-12 -56 -63 -95.5t-111 -39.5q-61 0 -96 39.5t-23 95.5z" />
<glyph unicode="&#x202f;" horiz-adv-x="369" />
<glyph unicode="&#x205f;" horiz-adv-x="462" />
<glyph unicode="&#x20ac;" horiz-adv-x="950" d="M164 494l37 178h90l20 90h-90l37 178h90l29 135q23 90 82 174q63 88 157.5 136.5t206.5 48.5t186.5 -48t100.5 -137q11 -39 13 -82.5t-0.5 -62.5t-4.5 -29l-18 -90h-205l18 90q3 12 3.5 30t-4.5 45t-17 49t-40 38t-69 16q-42 0 -78 -16t-57.5 -38t-38 -49t-23 -45 t-9.5 -30l-29 -135h268l-37 -178h-268l-20 -90h268l-37 -178h-268l-29 -136q-3 -12 -3.5 -30t4.5 -45.5t17 -50t41 -38.5t70 -16q40 0 75.5 16t57 38.5t38.5 49.5t24.5 45.5t9.5 30.5l18 91h205l-18 -91q-22 -87 -82 -174q-64 -89 -158 -136.5t-207 -47.5q-112 0 -186.5 48 t-100.5 136q-11 39 -13 82t0.5 62.5t4.5 29.5l29 136h-90z" />
<glyph unicode="&#xe000;" horiz-adv-x="1433" d="M0 0v1434h1434v-1434h-1434z" />
</font>
</defs>
</svg>
