<?xml version="1.0" standalone="no"?>
<!DOCTYPE svg PUBLIC "-//W3C//DTD SVG 1.1//EN" "http://www.w3.org/Graphics/SVG/1.1/DTD/svg11.dtd" >
<svg xmlns="http://www.w3.org/2000/svg">
<metadata></metadata>
<defs>
<font id="kenzoregular" horiz-adv-x="860" >
<font-face units-per-em="2048" ascent="1536" descent="-512" />
<missing-glyph horiz-adv-x="616" />
<glyph horiz-adv-x="2048" />
<glyph horiz-adv-x="2048" />
<glyph unicode="&#xd;" horiz-adv-x="2048" />
<glyph unicode=" "  horiz-adv-x="616" />
<glyph unicode="&#x09;" horiz-adv-x="616" />
<glyph unicode="&#xa0;" horiz-adv-x="616" />
<glyph unicode="!" horiz-adv-x="321" d="M49 90q0 37 27.5 63.5t64.5 26.5q38 0 65 -26.5t27 -63.5t-27 -63.5t-65 -26.5q-37 0 -64.5 26.5t-27.5 63.5zM59 358v1076h160v-1076h-160z" />
<glyph unicode="&#x22;" horiz-adv-x="614" d="M59 1143l33 291h215l-108 -291h-140zM307 1143l33 291h215l-109 -291h-139z" />
<glyph unicode="#" horiz-adv-x="970" d="M59 252l9 141h157l19 318h-150l10 141h148q2 45 8 141.5t8 141.5h166l-16 -283h188q2 45 8.5 141.5t8.5 141.5h163l-14 -283h139l-14 -141h-133l-21 -318h127l-10 -141h-125l-14 -252h-166l14 252h-186q-2 -40 -8 -126t-8 -126h-164l14 252h-158zM391 393h187l20 318 h-188z" />
<glyph unicode="$" d="M59 358v91h203v-91q0 -8 5 -31t21 -59.5t40 -58.5v446q-74 33 -129 79.5t-80.5 85t-40.5 80.5t-17 58.5t-2 26.5v90q0 84 45 174q34 66 93.5 112.5t130.5 61.5v97h204v-97q73 -18 132 -63t92 -111q45 -92 45 -174v-90h-205v90q0 11 -3.5 32t-19.5 58.5t-41 59.5v-447 q74 -33 129 -79.5t80.5 -85t40.5 -80t17 -58t2 -26.5v-91q0 -82 -45 -174q-71 -136 -224 -176v-94h-204v94q-70 19 -130 66.5t-92 109.5q-19 38 -31 81t-14 63t-2 30zM262 987q0 -19 15 -51.5t51 -61.5v351q-25 -22 -41 -59t-20.5 -59.5t-4.5 -31.5v-88zM532 209 q25 22 41 59t19.5 58t3.5 32v88q0 5 -5.5 21t-21.5 43.5t-37 48.5v-350z" />
<glyph unicode="%" horiz-adv-x="1390" d="M84 1063q0 -6 2 -25.5t9.5 -54.5t17.5 -61q36 -72 98.5 -115t138.5 -43q80 0 141 41t95 117q30 70 30 141v70q0 70 -28 143q-35 76 -96.5 117t-141.5 41q-79 0 -140 -41.5t-95 -116.5q-31 -67 -31 -143v-70zM238 1063v70q0 30 20 73q22 49 92 49t92 -49q21 -46 21 -73 v-70q0 -29 -21 -72q-22 -49 -92 -49t-92 49q-20 41 -20 72zM270 0l633 1434h215l-631 -1434h-217zM774 303q0 -74 31 -141q34 -76 94.5 -117t140.5 -41q82 0 143 40.5t95 117.5q29 63 29 141v70q0 80 -29 143q-34 77 -95 117.5t-143 40.5q-80 0 -140.5 -41t-94.5 -117 q-31 -67 -31 -143v-70zM930 303v70q0 34 18 73q23 50 92 50q38 0 62 -16t43 -52q8 -18 8 -55v-70q0 -28 -18 -72q-25 -49 -95 -49t-92 49q-18 37 -18 72z" />
<glyph unicode="&#x26;" horiz-adv-x="1122" d="M59 444q0 111 53.5 207.5t145.5 161.5q-115 112 -115 260q0 149 109.5 255t263.5 106q155 0 265 -106t110 -255h-205q0 75 -49.5 127.5t-120.5 52.5t-120.5 -52.5t-49.5 -127.5q0 -76 53.5 -129t128.5 -53v-180q-109 0 -187.5 -78.5t-78.5 -188.5q0 -109 75 -187.5 t179 -78.5q105 0 179.5 78.5t74.5 187.5v273h-90v178h383v-178h-88v-273q0 -184 -135 -314t-324 -130t-323 130t-134 314z" />
<glyph unicode="'" horiz-adv-x="366" d="M59 1143l33 291h215l-108 -291h-140z" />
<glyph unicode="(" horiz-adv-x="501" d="M59 358v717q0 82 45 174q44 89 131.5 137t206.5 48v-181q-44 0 -78.5 -16t-52.5 -37.5t-30 -48.5t-15.5 -45.5t-3.5 -30.5v-717q0 -17 7 -42t24 -58.5t56 -56.5t93 -23v-178q-119 0 -206.5 47.5t-131.5 136.5q-45 92 -45 174z" />
<glyph unicode=")" horiz-adv-x="501" d="M59 0v178q44 0 78 16t52.5 38t30 49t15 45.5t3.5 31.5v717q0 13 -3.5 31.5t-15 45t-30 48.5t-52.5 37.5t-78 15.5v181q119 0 206.5 -48t131.5 -137q45 -92 45 -174v-717q0 -82 -45 -174q-44 -89 -131.5 -136.5t-206.5 -47.5z" />
<glyph unicode="*" horiz-adv-x="739" d="M61 1210l62 123l170 -86v187h156v-187q17 9 77.5 40.5t89.5 45.5l62 -123l-197 -100q24 -28 73 -82.5t73 -81.5l-113 -96l-145 168l-146 -168l-108 96l147 164z" />
<glyph unicode="+" d="M59 627v180h269v268h204v-268h269v-180h-269v-269h-204v269h-269z" />
<glyph unicode="," horiz-adv-x="370" d="M59 -150l88 254h162l-145 -260z" />
<glyph unicode="-" d="M59 627v180h742v-180h-742z" />
<glyph unicode="." horiz-adv-x="321" d="M59 90q0 36 28 63t65 27q38 0 65 -26.5t27 -63.5t-27 -63.5t-65 -26.5q-37 0 -65 27t-28 63z" />
<glyph unicode="/" horiz-adv-x="751" d="M59 0l422 1434h211l-422 -1434h-211z" />
<glyph unicode="0" horiz-adv-x="770" d="M59 358v717q0 88 35 168q38 92 113 141.5t178 49.5q102 0 176.5 -49t114.5 -142q35 -85 35 -168v-717q0 -88 -35 -168q-40 -93 -114.5 -141.5t-176.5 -48.5q-103 0 -178 49t-113 141q-35 80 -35 168zM262 350q0 -17 6 -42.5t18.5 -56t38.5 -52t60 -21.5q67 0 100 80 q9 22 14.5 47t6.5 39l2 14v717q0 68 -34 123t-89 55q-68 0 -100 -77q-9 -22 -14.5 -47t-6.5 -39l-2 -15v-725z" />
<glyph unicode="1" horiz-adv-x="571" d="M61 1176l207 258h244v-1434h-203v1171l-96 -114z" />
<glyph unicode="2" horiz-adv-x="770" d="M59 0v178q0 14 1.5 34.5t15.5 78t38 114.5t76 135.5t123 149.5q159 159 195 316v88q0 13 -4 33.5t-14.5 51.5t-38 52.5t-66.5 21.5t-66.5 -21.5t-38 -52.5t-14.5 -51.5t-4 -33.5v-82h-203v82q0 79 37 161q40 86 114.5 132.5t174.5 46.5t175.5 -46.5t113.5 -132.5 q37 -82 37 -161v-82q0 -13 -2 -31t-16.5 -64t-38.5 -94.5t-75.5 -119t-121.5 -140.5q-62 -62 -107 -125t-65.5 -105t-32.5 -82.5t-13 -52.5t-1 -20h473v-178h-652z" />
<glyph unicode="3" horiz-adv-x="770" d="M59 358v136h203v-144q0 -17 6 -42.5t18.5 -56t38.5 -52t60 -21.5q55 0 89 55.5t34 124.5v142q0 16 -5.5 41t-18 56t-38.5 53t-61 22h-102v180h102q34 0 60 19t38.5 47t18.5 52t6 42v82q0 13 -4 33.5t-14.5 51.5t-38 52.5t-66.5 21.5q-31 0 -54.5 -14.5t-36 -34.5 t-20.5 -44.5t-10 -40t-2 -25.5v-82h-203v82q0 79 37 161q40 86 114.5 132.5t174.5 46.5t175.5 -46.5t113.5 -132.5q37 -82 37 -161v-82q0 -10 -3.5 -32.5t-12.5 -60.5t-31.5 -82t-53.5 -77q40 -46 65 -113t30.5 -102t5.5 -51v-136q0 -83 -35 -168q-40 -93 -114.5 -141.5 t-176.5 -48.5q-103 0 -178 49t-113 141q-35 80 -35 168z" />
<glyph unicode="4" horiz-adv-x="770" d="M59 403v195l295 836h267v-852h90v-179h-90v-403h-203v403h-359zM268 582h150v422q-138 -386 -150 -422z" />
<glyph unicode="5" horiz-adv-x="770" d="M59 358v136h203v-144q0 -17 6 -42.5t18.5 -56t38.5 -52t60 -21.5q67 0 100 80q9 22 14.5 47t6.5 39l2 14v142q0 16 -5.5 41t-17.5 56t-38 53t-60 22q-51 0 -152 -8t-131 -9v779h517v-181h-314v-405l78 4q103 0 178 -49t113 -141q35 -82 35 -168v-136q0 -83 -35 -168 q-40 -93 -114.5 -141.5t-176.5 -48.5q-103 0 -178 49t-113 141q-35 80 -35 168z" />
<glyph unicode="6" horiz-adv-x="770" d="M59 358v717q0 88 35 168q38 92 113 141.5t178 49.5q102 0 176.5 -49t114.5 -142q35 -80 35 -162h-203q0 16 -5.5 40.5t-17.5 56t-38.5 53.5t-61.5 22t-61.5 -21t-39 -51.5t-18.5 -55.5t-6 -42l2 -12v-242q57 23 123 23q103 0 178 -49t113 -141q35 -82 35 -168v-136 q0 -83 -35 -168q-40 -93 -114.5 -141.5t-176.5 -48.5q-103 0 -178 49t-113 141q-35 80 -35 168zM262 350q0 -17 6 -42.5t18.5 -56t38.5 -52t60 -21.5q55 0 89 55.5t34 124.5v142q0 16 -5.5 41t-18 56t-38.5 53t-61 22q-32 0 -56 -17.5t-36 -41t-20 -52t-9.5 -44.5t-1.5 -25 v-142z" />
<glyph unicode="7" horiz-adv-x="788" d="M59 0l461 1253h-442v181h651v-195l-455 -1239h-215z" />
<glyph unicode="8" horiz-adv-x="770" d="M59 358v136q0 16 5.5 51t30.5 102t65 113q-41 43 -66 106t-30 96t-5 50v82q0 79 37 161q40 86 114.5 132.5t174.5 46.5t175.5 -46.5t113.5 -132.5q37 -82 37 -161v-82q0 -10 -3.5 -32.5t-12.5 -60.5t-31.5 -82t-53.5 -77q40 -46 65 -113t30.5 -102t5.5 -51v-136 q0 -83 -35 -168q-40 -93 -114.5 -141.5t-176.5 -48.5q-103 0 -178 49t-113 141q-35 80 -35 168zM262 350q0 -17 6 -42.5t18.5 -56t38.5 -52t60 -21.5q55 0 89 55.5t34 124.5v142q0 16 -5.5 41t-18 56t-38.5 53t-61 22q-32 0 -56 -17.5t-36 -41t-20 -52t-9.5 -44.5t-1.5 -25 v-142zM262 1012q0 -9 1.5 -23.5t9 -39.5t20 -45.5t36.5 -36t56 -15.5q34 0 60 19t38.5 47t18.5 52t6 42v82q0 13 -4 33.5t-14.5 51.5t-38 52.5t-66.5 21.5q-31 0 -54.5 -14.5t-36 -34.5t-20.5 -44.5t-10 -40t-2 -25.5v-82z" />
<glyph unicode="9" horiz-adv-x="770" d="M59 358h203v-8q0 -17 6 -42.5t18.5 -56t38.5 -52t60 -21.5q55 0 89 55.5t34 124.5v246q-55 -22 -123 -22q-103 0 -178 49t-113 141q-35 82 -35 168v135q0 88 35 168q38 92 113 141.5t178 49.5t178 -49.5t113 -141.5q35 -80 35 -168v-717q0 -83 -35 -168 q-40 -93 -114.5 -141.5t-176.5 -48.5q-103 0 -178 49t-113 141q-35 80 -35 168zM260 1083l2 -12v-139q0 -16 6 -41.5t19 -56t39 -51.5t59 -21q32 0 56 17.5t36 41t20 52t9.5 44.5t1.5 25v139q0 16 -5.5 40.5t-17.5 56t-38.5 53.5t-61.5 22t-61.5 -21t-39 -51.5t-18.5 -55.5 t-6 -42z" />
<glyph unicode=":" horiz-adv-x="321" d="M59 90q0 36 28 63t65 27q38 0 65 -26.5t27 -63.5t-27 -63.5t-65 -26.5q-37 0 -65 27t-28 63zM59 717q0 36 28 63t65 27q38 0 65 -26.5t27 -63.5t-27 -63.5t-65 -26.5q-37 0 -65 27t-28 63z" />
<glyph unicode=";" horiz-adv-x="370" d="M59 -150l88 254h162l-145 -260zM59 717q0 36 28 63t65 27q38 0 65 -26.5t27 -63.5t-27 -63.5t-65 -26.5q-37 0 -65 27t-28 63z" />
<glyph unicode="&#x3c;" horiz-adv-x="688" d="M63 717l420 471l142 -127l-303 -344q49 -56 152.5 -171t152.5 -171l-144 -129z" />
<glyph unicode="=" horiz-adv-x="950" d="M59 403v179h832v-179h-832zM59 852v178h832v-178h-832z" />
<glyph unicode="&#x3e;" horiz-adv-x="688" d="M61 375l306 342q-49 57 -153 171.5t-153 170.5l144 129l420 -471l-420 -471z" />
<glyph unicode="?" horiz-adv-x="770" d="M59 1012v82q0 79 37 161q40 86 114.5 132.5t174.5 46.5t175.5 -46.5t113.5 -132.5q37 -82 37 -161v-82q0 -14 -2.5 -34t-12.5 -60.5t-37 -87.5t-67 -87q-45 -45 -71.5 -107.5t-30.5 -101.5l-3 -40v-136h-204v136q0 10 1 27t10.5 61.5t25 87t49.5 98.5t80 102q24 24 39 61 t17.5 55t2.5 26v82q0 12 -4 32t-14.5 51.5t-38 53.5t-66.5 22t-66.5 -22t-38 -53.5t-14.5 -51.5t-4 -32v-82h-203zM279 90q0 37 27.5 63.5t64.5 26.5q38 0 65 -26.5t27 -63.5t-27 -63.5t-65 -26.5q-37 0 -64.5 26.5t-27.5 63.5z" />
<glyph unicode="@" horiz-adv-x="1576" d="M59 717q0 145 58 278t155.5 229t232.5 153t283 57t283 -57t233 -153t156 -229t58 -278t-58 -278t-156 -229t-233 -153t-283 -57t-283 57t-232.5 153t-155.5 229t-58 278zM262 717q0 -146 70.5 -270t191.5 -196.5t264 -72.5t264 72.5t191 196.5t70 270t-70 269.5t-191 195 t-264 71.5t-264 -71.5t-191.5 -195t-70.5 -269.5zM373 717q0 148 109 253t261 105q91 0 168 -41v41h203v-717h-203v39q-74 -39 -168 -39q-153 0 -261.5 105t-108.5 254zM578 717q0 -74 48 -127t117 -53t118.5 53t49.5 127q0 73 -49.5 125.5t-118.5 52.5t-117 -52t-48 -126z " />
<glyph unicode="A" horiz-adv-x="1024" d="M59 0l308 1434h290l308 -1434h-207l-96 449h-300l-96 -449h-207zM401 627h222l-111 514q-33 -148 -111 -514z" />
<glyph unicode="B" d="M59 0v1434h332q9 0 23.5 -1t52 -9t72 -22.5t76 -44.5t71 -71t50 -107.5t20.5 -148.5q0 -174 -109 -295q154 -114 154 -332q0 -82 -21 -149t-51 -107.5t-72.5 -71t-77.5 -44t-73.5 -21.5t-52.5 -9t-23 -1h-371zM262 178h162l4 1q3 1 8 1q54 9 82 29q78 49 78 194 q0 146 -82 197q-19 10 -40 17t-32 9l-12 1h-168v-449zM262 807h129q22 0 47.5 11.5t52.5 35.5t44.5 70t17.5 106t-17.5 106t-44.5 70t-52.5 35.5t-47.5 11.5h-129v-446z" />
<glyph unicode="C" d="M59 358v717q0 82 45 174q44 89 128.5 137t197.5 48t197.5 -48t128.5 -137q45 -92 45 -174v-90h-205v90q0 13 -3 31.5t-14 45t-28 48.5t-48.5 37.5t-72.5 15.5t-73 -16t-49 -37.5t-28 -48.5t-14.5 -45.5t-3.5 -30.5v-717q0 -17 6.5 -42t22.5 -58.5t52.5 -56.5t86.5 -23 q41 0 72.5 16t48.5 37.5t28 49t14 46t3 31.5v91h205v-91q0 -82 -45 -174q-44 -89 -128.5 -136.5t-197.5 -47.5t-197.5 47.5t-128.5 136.5q-45 92 -45 174z" />
<glyph unicode="D" d="M59 0v1434h371q113 0 197.5 -48t128.5 -137q45 -92 45 -174v-717q0 -106 -49.5 -187.5t-141.5 -127.5q-88 -43 -180 -43h-371zM262 178h160q75 0 124.5 53.5t49.5 126.5v717q0 13 -3 31.5t-14 45t-28 48.5t-48.5 37.5t-72.5 15.5h-168v-1075z" />
<glyph unicode="E" horiz-adv-x="770" d="M59 0v1434h652v-181h-449v-446h334v-180h-334v-449h449v-178h-652z" />
<glyph unicode="F" horiz-adv-x="770" d="M59 0v1434h652v-181h-449v-446h334v-180h-334v-627h-203z" />
<glyph unicode="G" d="M59 358v717q0 82 45 174q44 89 128.5 137t197.5 48t197.5 -48t128.5 -137q45 -92 45 -174v-90h-205v90q0 13 -3 31.5t-14 45t-28 48.5t-48.5 37.5t-72.5 15.5t-73 -16t-49 -37.5t-28 -48.5t-14.5 -45.5t-3.5 -30.5v-717q0 -17 6.5 -42t22.5 -58.5t52.5 -56.5t86.5 -23 q41 0 72.5 16t48.5 37.5t28 49t14 46t3 31.5v269h-133v180h338v-449q0 -82 -45 -174q-44 -89 -128.5 -136.5t-197.5 -47.5t-197.5 47.5t-128.5 136.5q-45 92 -45 174z" />
<glyph unicode="H" d="M59 0v1434h203v-627h334v627h205v-1434h-205v627h-334v-627h-203z" />
<glyph unicode="I" horiz-adv-x="321" d="M59 0v1434h203v-1434h-203z" />
<glyph unicode="J" d="M59 358v91h203v-91q0 -17 6.5 -42t22.5 -58.5t52.5 -56.5t86.5 -23q41 0 72.5 16t48.5 37.5t28 49t14 46t3 31.5v1076h205v-1076q0 -82 -45 -174q-44 -89 -128.5 -136.5t-197.5 -47.5t-197.5 47.5t-128.5 136.5q-45 92 -45 174z" />
<glyph unicode="K" horiz-adv-x="937" d="M59 0v1434h203v-637l377 637h238l-422 -717q69 -118 211.5 -358.5t210.5 -358.5h-230l-313 535q-6 -10 -33 -50.5t-39 -62.5v-422h-203z" />
<glyph unicode="L" horiz-adv-x="679" d="M59 0v1434h203v-1256h359v-178h-562z" />
<glyph unicode="M" horiz-adv-x="1218" d="M59 0v1434h275l274 -1104l277 1104h274v-1434h-205v877q-183 -730 -219 -877h-254l-219 877v-877h-203z" />
<glyph unicode="N" d="M59 0v1434h246l291 -902v902h205v-1434h-248l-291 901v-901h-203z" />
<glyph unicode="O" d="M59 358v717q0 82 45 174q44 89 128.5 137t197.5 48t197.5 -48t128.5 -137q45 -92 45 -174v-717q0 -82 -45 -174q-44 -89 -128.5 -136.5t-197.5 -47.5t-197.5 47.5t-128.5 136.5q-45 92 -45 174zM262 358q0 -17 6.5 -42t22.5 -58.5t52.5 -56.5t86.5 -23q41 0 72.5 16 t48.5 37.5t28 49t14 46t3 31.5v717q0 13 -3 31.5t-14 45t-28 48.5t-48.5 37.5t-72.5 15.5t-73 -16t-49 -37.5t-28 -48.5t-14.5 -45.5t-3.5 -30.5v-717z" />
<glyph unicode="P" d="M59 0v1434h371q13 0 34 -2t67 -15t85 -35q185 -111 185 -352q0 -82 -20.5 -148.5t-51 -107t-72.5 -71t-77 -44.5t-73.5 -22t-53 -9t-23.5 -1h-168v-627h-203zM262 807h168q40 0 88 29q78 49 78 194q0 148 -82 197q-20 12 -41 18.5t-32 6.5l-11 1h-168v-446z" />
<glyph unicode="Q" d="M59 358v717q0 82 45 174q44 89 128.5 137t197.5 48t197.5 -48t128.5 -137q45 -92 45 -174v-717q0 -82 -45 -174q-72 -138 -234 -176h10v-153h-204v153h10q-76 19 -138 66t-94 110q-19 38 -31 81t-14 63t-2 30zM262 358q0 -8 5 -31t21 -59.5t40 -58.5v139h204v-139 q25 22 41 59t19.5 58t3.5 32v717q0 13 -3 31.5t-14 45t-28 48.5t-48.5 37.5t-72.5 15.5t-73 -16t-49 -37.5t-28 -48.5t-14.5 -45.5t-3.5 -30.5v-717z" />
<glyph unicode="R" d="M59 0v1434h371q9 0 23 -1t52.5 -9t73.5 -22t77.5 -44t72.5 -71t51 -108t21 -149q0 -193 -125 -309q125 -103 125 -272v-449h-205v449q0 64 -51 121t-115 57h-168v-627h-203zM262 807h168q21 0 47 11t54 34.5t46.5 70t18.5 107.5q0 148 -82 197q-20 12 -41 18.5t-32 6.5 l-11 1h-168v-446z" />
<glyph unicode="S" d="M59 358v91h203v-91q0 -17 6.5 -42t22.5 -58.5t52.5 -56.5t86.5 -23q41 0 72.5 16t48.5 37.5t28 49t14 46t3 31.5v88q0 5 -3.5 17t-16 34.5t-32.5 44.5t-58.5 46.5t-88.5 42.5q-90 32 -158 80t-100.5 90.5t-52.5 87.5t-23.5 65.5t-3.5 30.5v90q0 82 45 174 q44 89 128.5 137t197.5 48t197.5 -48t128.5 -137q45 -92 45 -174v-90h-205v90q0 13 -3 31.5t-14 45t-28 48.5t-48.5 37.5t-72.5 15.5t-73 -16t-49 -37.5t-28 -48.5t-14.5 -45.5t-3.5 -30.5v-90q1 -8 4.5 -19.5t16.5 -35t33.5 -44.5t58.5 -44.5t88 -40.5q94 -32 163 -80 t101 -89.5t50.5 -87.5t21 -64.5t2.5 -30.5v-91q0 -82 -45 -174q-44 -89 -128.5 -136.5t-197.5 -47.5t-197.5 47.5t-128.5 136.5q-45 92 -45 174z" />
<glyph unicode="T" d="M59 1253v181h742v-181h-269v-1253h-204v1253h-269z" />
<glyph unicode="U" d="M59 358v1076h203v-1076q0 -17 6.5 -42t22.5 -58.5t52.5 -56.5t86.5 -23q41 0 72.5 16t48.5 37.5t28 49t14 46t3 31.5v1076h205v-1076q0 -82 -45 -174q-44 -89 -128.5 -136.5t-197.5 -47.5t-197.5 47.5t-128.5 136.5q-45 92 -45 174z" />
<glyph unicode="V" horiz-adv-x="1024" d="M59 1434h207l246 -1139l246 1139h207l-308 -1434h-290z" />
<glyph unicode="W" horiz-adv-x="1474" d="M59 1434h207l195 -1014q14 85 74.5 451t91.5 563h221l196 -1012q26 169 81.5 506t82.5 506h207l-231 -1434h-264l-172 891q-23 -150 -72.5 -445.5t-73.5 -445.5h-266z" />
<glyph unicode="X" horiz-adv-x="927" d="M59 0l295 717l-295 717h220l184 -451q30 76 93 225.5t93 225.5h219l-295 -717l295 -717h-219l-186 451l-184 -451h-220z" />
<glyph unicode="Y" horiz-adv-x="927" d="M59 1434h220l184 -451q30 76 93 225.5t93 225.5h219l-303 -736v-698h-203v698z" />
<glyph unicode="Z" d="M59 0v197l529 1056h-529v181h742v-197l-529 -1059h529v-178h-742z" />
<glyph unicode="[" horiz-adv-x="501" d="M59 0v1434h383v-181h-180v-1075h180v-178h-383z" />
<glyph unicode="\" horiz-adv-x="751" d="M59 1434h211l422 -1434h-211z" />
<glyph unicode="]" horiz-adv-x="501" d="M59 0v178h179v1075h-179v181h383v-1434h-383z" />
<glyph unicode="^" horiz-adv-x="886" d="M61 1098l383 325l381 -325l-125 -144l-256 222l-258 -222z" />
<glyph unicode="_" d="M59 0v180h742v-180h-742z" />
<glyph unicode="a" horiz-adv-x="1024" d="M59 0l308 1434h290l308 -1434h-207l-96 449h-300l-96 -449h-207zM401 627h222l-111 514q-33 -148 -111 -514z" />
<glyph unicode="b" d="M59 0v1434h332q9 0 23.5 -1t52 -9t72 -22.5t76 -44.5t71 -71t50 -107.5t20.5 -148.5q0 -174 -109 -295q154 -114 154 -332q0 -82 -21 -149t-51 -107.5t-72.5 -71t-77.5 -44t-73.5 -21.5t-52.5 -9t-23 -1h-371zM262 178h162l4 1q3 1 8 1q54 9 82 29q78 49 78 194 q0 146 -82 197q-19 10 -40 17t-32 9l-12 1h-168v-449zM262 807h129q22 0 47.5 11.5t52.5 35.5t44.5 70t17.5 106t-17.5 106t-44.5 70t-52.5 35.5t-47.5 11.5h-129v-446z" />
<glyph unicode="c" d="M59 358v717q0 82 45 174q44 89 128.5 137t197.5 48t197.5 -48t128.5 -137q45 -92 45 -174v-90h-205v90q0 13 -3 31.5t-14 45t-28 48.5t-48.5 37.5t-72.5 15.5t-73 -16t-49 -37.5t-28 -48.5t-14.5 -45.5t-3.5 -30.5v-717q0 -17 6.5 -42t22.5 -58.5t52.5 -56.5t86.5 -23 q41 0 72.5 16t48.5 37.5t28 49t14 46t3 31.5v91h205v-91q0 -82 -45 -174q-44 -89 -128.5 -136.5t-197.5 -47.5t-197.5 47.5t-128.5 136.5q-45 92 -45 174z" />
<glyph unicode="d" d="M59 0v1434h371q113 0 197.5 -48t128.5 -137q45 -92 45 -174v-717q0 -106 -49.5 -187.5t-141.5 -127.5q-88 -43 -180 -43h-371zM262 178h160q75 0 124.5 53.5t49.5 126.5v717q0 13 -3 31.5t-14 45t-28 48.5t-48.5 37.5t-72.5 15.5h-168v-1075z" />
<glyph unicode="e" horiz-adv-x="770" d="M59 0v1434h652v-181h-449v-446h334v-180h-334v-449h449v-178h-652z" />
<glyph unicode="f" horiz-adv-x="770" d="M59 0v1434h652v-181h-449v-446h334v-180h-334v-627h-203z" />
<glyph unicode="g" d="M59 358v717q0 82 45 174q44 89 128.5 137t197.5 48t197.5 -48t128.5 -137q45 -92 45 -174v-90h-205v90q0 13 -3 31.5t-14 45t-28 48.5t-48.5 37.5t-72.5 15.5t-73 -16t-49 -37.5t-28 -48.5t-14.5 -45.5t-3.5 -30.5v-717q0 -17 6.5 -42t22.5 -58.5t52.5 -56.5t86.5 -23 q41 0 72.5 16t48.5 37.5t28 49t14 46t3 31.5v269h-133v180h338v-449q0 -82 -45 -174q-44 -89 -128.5 -136.5t-197.5 -47.5t-197.5 47.5t-128.5 136.5q-45 92 -45 174z" />
<glyph unicode="h" d="M59 0v1434h203v-627h334v627h205v-1434h-205v627h-334v-627h-203z" />
<glyph unicode="i" horiz-adv-x="321" d="M59 0v1434h203v-1434h-203z" />
<glyph unicode="j" d="M59 358v91h203v-91q0 -17 6.5 -42t22.5 -58.5t52.5 -56.5t86.5 -23q41 0 72.5 16t48.5 37.5t28 49t14 46t3 31.5v1076h205v-1076q0 -82 -45 -174q-44 -89 -128.5 -136.5t-197.5 -47.5t-197.5 47.5t-128.5 136.5q-45 92 -45 174z" />
<glyph unicode="k" horiz-adv-x="937" d="M59 0v1434h203v-637l377 637h238l-422 -717q69 -118 211.5 -358.5t210.5 -358.5h-230l-313 535q-6 -10 -33 -50.5t-39 -62.5v-422h-203z" />
<glyph unicode="l" horiz-adv-x="679" d="M59 0v1434h203v-1256h359v-178h-562z" />
<glyph unicode="m" horiz-adv-x="1218" d="M59 0v1434h275l274 -1104l277 1104h274v-1434h-205v877q-183 -730 -219 -877h-254l-219 877v-877h-203z" />
<glyph unicode="n" d="M59 0v1434h246l291 -902v902h205v-1434h-248l-291 901v-901h-203z" />
<glyph unicode="o" d="M59 358v717q0 82 45 174q44 89 128.5 137t197.5 48t197.5 -48t128.5 -137q45 -92 45 -174v-717q0 -82 -45 -174q-44 -89 -128.5 -136.5t-197.5 -47.5t-197.5 47.5t-128.5 136.5q-45 92 -45 174zM262 358q0 -17 6.5 -42t22.5 -58.5t52.5 -56.5t86.5 -23q41 0 72.5 16 t48.5 37.5t28 49t14 46t3 31.5v717q0 13 -3 31.5t-14 45t-28 48.5t-48.5 37.5t-72.5 15.5t-73 -16t-49 -37.5t-28 -48.5t-14.5 -45.5t-3.5 -30.5v-717z" />
<glyph unicode="p" d="M59 0v1434h371q13 0 34 -2t67 -15t85 -35q185 -111 185 -352q0 -82 -20.5 -148.5t-51 -107t-72.5 -71t-77 -44.5t-73.5 -22t-53 -9t-23.5 -1h-168v-627h-203zM262 807h168q40 0 88 29q78 49 78 194q0 148 -82 197q-20 12 -41 18.5t-32 6.5l-11 1h-168v-446z" />
<glyph unicode="q" d="M59 358v717q0 82 45 174q44 89 128.5 137t197.5 48t197.5 -48t128.5 -137q45 -92 45 -174v-717q0 -82 -45 -174q-72 -138 -234 -176h10v-153h-204v153h10q-76 19 -138 66t-94 110q-19 38 -31 81t-14 63t-2 30zM262 358q0 -8 5 -31t21 -59.5t40 -58.5v139h204v-139 q25 22 41 59t19.5 58t3.5 32v717q0 13 -3 31.5t-14 45t-28 48.5t-48.5 37.5t-72.5 15.5t-73 -16t-49 -37.5t-28 -48.5t-14.5 -45.5t-3.5 -30.5v-717z" />
<glyph unicode="r" d="M59 0v1434h371q9 0 23 -1t52.5 -9t73.5 -22t77.5 -44t72.5 -71t51 -108t21 -149q0 -193 -125 -309q125 -103 125 -272v-449h-205v449q0 64 -51 121t-115 57h-168v-627h-203zM262 807h168q21 0 47 11t54 34.5t46.5 70t18.5 107.5q0 148 -82 197q-20 12 -41 18.5t-32 6.5 l-11 1h-168v-446z" />
<glyph unicode="s" d="M-55 358v91h202v-91q0 -17 6.5 -42t22.5 -58.5t52.5 -56.5t86.5 -23q41 0 72.5 16t48.5 37.5t28 49t14 46t3 31.5v88q0 5 -3 17t-15.5 34.5t-32.5 44.5t-58.5 46.5t-88.5 42.5q-90 32 -158 80t-100.5 90.5t-52.5 87.5t-23.5 65.5t-3.5 30.5v90q0 82 45 174q44 89 128 137 t197 48t197.5 -48t128.5 -137q45 -92 45 -174v-90h-205v90q0 13 -3 31.5t-14 45t-28 48.5t-48.5 37.5t-72.5 15.5t-73 -16t-49 -37.5t-28 -48.5t-14.5 -45.5t-3.5 -30.5v-90q1 -8 4.5 -19.5t16.5 -35t33.5 -44.5t58.5 -44.5t88 -40.5q94 -32 163 -80t101 -89.5t50.5 -87.5 t21 -64.5t2.5 -30.5v-91q0 -82 -45 -174q-44 -89 -128.5 -136.5t-197.5 -47.5t-197 47.5t-128 136.5q-45 92 -45 174z" />
<glyph unicode="t" d="M59 1253v181h742v-181h-269v-1253h-204v1253h-269z" />
<glyph unicode="u" d="M59 358v1076h203v-1076q0 -17 6.5 -42t22.5 -58.5t52.5 -56.5t86.5 -23q41 0 72.5 16t48.5 37.5t28 49t14 46t3 31.5v1076h205v-1076q0 -82 -45 -174q-44 -89 -128.5 -136.5t-197.5 -47.5t-197.5 47.5t-128.5 136.5q-45 92 -45 174z" />
<glyph unicode="v" horiz-adv-x="1024" d="M59 1434h207l246 -1139l246 1139h207l-308 -1434h-290z" />
<glyph unicode="w" horiz-adv-x="1474" d="M59 1434h207l195 -1014q14 85 74.5 451t91.5 563h221l196 -1012q26 169 81.5 506t82.5 506h207l-231 -1434h-264l-172 891q-23 -150 -72.5 -445.5t-73.5 -445.5h-266z" />
<glyph unicode="x" horiz-adv-x="927" d="M59 0l295 717l-295 717h220l184 -451q30 76 93 225.5t93 225.5h219l-295 -717l295 -717h-219l-186 451l-184 -451h-220z" />
<glyph unicode="y" horiz-adv-x="927" d="M59 1434h220l184 -451q30 76 93 225.5t93 225.5h219l-303 -736v-698h-203v698z" />
<glyph unicode="z" d="M59 0v197l529 1056h-529v181h742v-197l-529 -1059h529v-178h-742z" />
<glyph unicode="{" horiz-adv-x="643" d="M63 721l76 59q23 29 42.5 104t19.5 191q0 106 49 188t141 128q88 43 193 43l-6 -181q-52 1 -99 -24q-76 -45 -76 -154q0 -220 -73 -358q73 -138 73 -359q0 -110 76 -153q21 -11 47 -18t42 -8l16 -1v-178q-105 0 -193 43q-92 46 -141 127.5t-49 187.5q0 117 -19.5 193 t-40.5 102z" />
<glyph unicode="|" horiz-adv-x="321" d="M59 -111v1647h203v-1647h-203z" />
<glyph unicode="}" horiz-adv-x="643" d="M59 0l7 178q51 2 98 27q76 45 76 153q0 221 73 359q-73 138 -73 358q0 111 -76 154q-21 11 -47 17t-42 6l-16 1v181q105 0 193 -43q92 -46 141 -128t49 -188q0 -116 19.5 -191t42.5 -104l76 -59l-78 -68q-21 -26 -40.5 -102t-19.5 -193q0 -106 -49 -187.5t-141 -127.5 q-88 -43 -193 -43z" />
<glyph unicode="&#xa1;" horiz-adv-x="321" d="M59 47v979l50 49h110v-1026l-53 -53zM59 1343q0 37 31 64t72 27t70.5 -27t29.5 -64t-29.5 -62.5t-70.5 -25.5q-42 0 -72.5 26t-30.5 62z" />
<glyph unicode="&#xad;" d="M59 627v180h742v-180h-742z" />
<glyph unicode="&#xba;" horiz-adv-x="641" d="M59 1098v67q0 60 31 127q31 66 91.5 104t137.5 38q82 0 141.5 -36.5t90.5 -105.5q31 -66 31 -127v-67q0 -60 -31 -127t-92 -104.5t-140 -37.5q-77 0 -137.5 38t-91.5 104q-31 67 -31 127zM225 1100q0 -39 17 -74q27 -55 77 -55q57 0 80 57q6 16 10.5 33.5t5.5 26.5l1 10 v65q0 1 -1 5t-1 6q-6 51 -15 63q-27 55 -80 55q-54 0 -77 -57q-6 -16 -10.5 -33.5t-5.5 -27.5l-1 -9v-65z" />
<glyph unicode="&#xbf;" horiz-adv-x="770" d="M59 340v82q0 14 2.5 34t12.5 60t37 87t67 87q45 45 71.5 107.5t30.5 102.5l3 40v135h204v-135q0 -11 -1 -27t-10 -61t-24.5 -88t-49.5 -99t-80 -102q-24 -24 -39 -60.5t-18 -55t-3 -25.5v-82q0 -12 4 -32t14.5 -52t38 -54t66.5 -22t66.5 22t38 54t14.5 52t4 32v82h203 v-82q0 -80 -37 -162q-40 -86 -114.5 -132t-174.5 -46t-175.5 46t-113.5 132q-37 82 -37 162zM283 1343q0 37 30.5 64t71.5 27t71.5 -27t30.5 -64q0 -36 -30 -62t-72 -26t-72 26t-30 62z" />
<glyph unicode="&#xc0;" horiz-adv-x="1024" d="M59 0l308 1434h290l308 -1434h-207l-96 449h-300l-96 -449h-207zM285 1671l34 152l414 -144l-20 -104zM401 627h222l-111 514q-33 -148 -111 -514z" />
<glyph unicode="&#xc1;" horiz-adv-x="1024" d="M59 0l308 1434h290l308 -1434h-207l-96 449h-300l-96 -449h-207zM291 1679l414 144l34 -152l-428 -94zM401 627h222l-111 514q-33 -148 -111 -514z" />
<glyph unicode="&#xc2;" horiz-adv-x="1024" d="M59 0l308 1434h290l308 -1434h-207l-96 449h-300l-96 -449h-207zM266 1669l244 180l242 -180l-113 -151l-129 96l-131 -96zM401 627h222l-111 514q-33 -148 -111 -514z" />
<glyph unicode="&#xc4;" horiz-adv-x="1024" d="M59 0l308 1434h290l308 -1434h-207l-96 449h-300l-96 -449h-207zM274 1651q0 37 31 63.5t72 26.5t71.5 -26.5t30.5 -63.5t-30.5 -63.5t-71.5 -26.5t-72 26.5t-31 63.5zM401 627h222l-111 514q-33 -148 -111 -514zM545 1651q0 37 29.5 63.5t70.5 26.5q43 0 73 -26.5 t30 -63.5t-30 -63.5t-73 -26.5q-41 0 -70.5 26.5t-29.5 63.5z" />
<glyph unicode="&#xc8;" horiz-adv-x="770" d="M59 0v1434h652v-181h-449v-446h334v-180h-334v-449h449v-178h-652zM137 1671l35 152l414 -144l-21 -102z" />
<glyph unicode="&#xc9;" horiz-adv-x="770" d="M59 0v1434h652v-181h-449v-446h334v-180h-334v-449h449v-178h-652zM137 1679l414 144l35 -152l-428 -94z" />
<glyph unicode="&#xca;" horiz-adv-x="770" d="M59 0v1434h652v-181h-449v-446h334v-180h-334v-449h449v-178h-652zM131 1669l244 180l241 -180l-112 -151l-129 96l-131 -96z" />
<glyph unicode="&#xcb;" horiz-adv-x="770" d="M59 0v1434h652v-181h-449v-446h334v-180h-334v-449h449v-178h-652zM143 1651q0 37 31 63.5t72 26.5t71.5 -26.5t30.5 -63.5t-30.5 -63.5t-71.5 -26.5t-72 26.5t-31 63.5zM414 1651q0 37 29.5 63.5t70.5 26.5q42 0 72 -26.5t30 -63.5t-30 -63.5t-72 -26.5 q-41 0 -70.5 26.5t-29.5 63.5z" />
<glyph unicode="&#xcc;" horiz-adv-x="448" d="M0 1671l35 152l414 -144l-21 -104zM111 0v1434h202v-1434h-202z" />
<glyph unicode="&#xcd;" horiz-adv-x="448" d="M0 1679l414 144l35 -152l-429 -94zM111 0v1434h202v-1434h-202z" />
<glyph unicode="&#xce;" horiz-adv-x="505" d="M10 1669l244 180l242 -180l-113 -151l-129 96l-131 -96zM147 0v1434h203v-1434h-203z" />
<glyph unicode="&#xcf;" horiz-adv-x="493" d="M10 1651q0 37 31 63.5t72 26.5t71.5 -26.5t30.5 -63.5t-30.5 -63.5t-71.5 -26.5t-72 26.5t-31 63.5zM145 0v1434h203v-1434h-203zM281 1651q0 37 29.5 63.5t70.5 26.5q42 0 72 -26.5t30 -63.5t-30 -63.5t-72 -26.5q-41 0 -70.5 26.5t-29.5 63.5z" />
<glyph unicode="&#xd0;" horiz-adv-x="995" d="M59 627v180h136v627h370q113 0 197.5 -48t128.5 -137q45 -92 45 -174v-717q0 -106 -49.5 -187.5t-141.5 -127.5q-88 -43 -180 -43h-370v627h-136zM397 178h160q46 0 79.5 12t51 29t28 43.5t13 47.5t2.5 48v717q0 56 -24 99q-42 79 -142 79h-168v-446h135v-180h-135v-449z " />
<glyph unicode="&#xd2;" d="M59 358v717q0 82 45 174q44 89 128.5 137t197.5 48t197.5 -48t128.5 -137q45 -92 45 -174v-717q0 -82 -45 -174q-44 -89 -128.5 -136.5t-197.5 -47.5t-197.5 47.5t-128.5 136.5q-45 92 -45 174zM203 1671l35 152l413 -144l-20 -104zM264 358q0 -13 3 -31.5t14 -46t28 -49 t48.5 -37.5t72.5 -16q50 0 86 23t52 56.5t23 58.5t7 42v717q0 12 -3.5 30.5t-14.5 45.5t-28 48.5t-49 37.5t-73 16t-72.5 -15.5t-48.5 -37.5t-28 -48.5t-14 -45t-3 -31.5v-717z" />
<glyph unicode="&#xd3;" d="M59 358v717q0 82 45 174q44 89 128.5 137t197.5 48t197.5 -48t128.5 -137q45 -92 45 -174v-717q0 -82 -45 -174q-44 -89 -128.5 -136.5t-197.5 -47.5t-197.5 47.5t-128.5 136.5q-45 92 -45 174zM209 1679l414 144l34 -152l-428 -94zM262 358q0 -17 6.5 -42t22.5 -58.5 t52.5 -56.5t86.5 -23q41 0 72.5 16t48.5 37.5t28 49t14 46t3 31.5v717q0 13 -3 31.5t-14 45t-28 48.5t-48.5 37.5t-72.5 15.5t-73 -16t-49 -37.5t-28 -48.5t-14.5 -45.5t-3.5 -30.5v-717z" />
<glyph unicode="&#xd4;" d="M59 358v717q0 82 45 174q44 89 128.5 137t197.5 48t197.5 -48t128.5 -137q45 -92 45 -174v-717q0 -82 -45 -174q-44 -89 -128.5 -136.5t-197.5 -47.5t-197.5 47.5t-128.5 136.5q-45 92 -45 174zM186 1669l244 180l242 -180l-113 -151l-129 96l-131 -96zM262 358 q0 -17 6.5 -42t22.5 -58.5t52.5 -56.5t86.5 -23q41 0 72.5 16t48.5 37.5t28 49t14 46t3 31.5v717q0 13 -3 31.5t-14 45t-28 48.5t-48.5 37.5t-72.5 15.5t-73 -16t-49 -37.5t-28 -48.5t-14.5 -45.5t-3.5 -30.5v-717z" />
<glyph unicode="&#xd6;" d="M59 358v717q0 82 45 174q44 89 128.5 137t197.5 48t197.5 -48t128.5 -137q45 -92 45 -174v-717q0 -82 -45 -174q-44 -89 -128.5 -136.5t-197.5 -47.5t-197.5 47.5t-128.5 136.5q-45 92 -45 174zM188 1651q0 37 31 63.5t72 26.5t71.5 -26.5t30.5 -63.5t-30.5 -63.5 t-71.5 -26.5t-72 26.5t-31 63.5zM262 358q0 -17 6.5 -42t22.5 -58.5t52.5 -56.5t86.5 -23q41 0 72.5 16t48.5 37.5t28 49t14 46t3 31.5v717q0 13 -3 31.5t-14 45t-28 48.5t-48.5 37.5t-72.5 15.5t-73 -16t-49 -37.5t-28 -48.5t-14.5 -45.5t-3.5 -30.5v-717zM459 1651 q0 37 29.5 63.5t70.5 26.5q43 0 73 -26.5t30 -63.5t-30 -63.5t-73 -26.5q-41 0 -70.5 26.5t-29.5 63.5z" />
<glyph unicode="&#xd8;" d="M59 358v717q0 82 45 174q44 89 128.5 137t197.5 48t197.5 -48t128.5 -137q45 -92 45 -174v-717q0 -82 -45 -174q-44 -89 -128.5 -136.5t-197.5 -47.5t-197.5 47.5t-128.5 136.5q-45 92 -45 174zM262 571q39 112 118 334.5t118 335.5q-21 12 -68 12q-52 0 -86 -19t-57 -60 q-25 -45 -25 -99v-504zM342 199q47 -21 88 -21q97 0 143 82q23 41 23 98v551z" />
<glyph unicode="&#xd9;" d="M59 358v1076h205v-1076q0 -13 3 -31.5t14 -46t28 -49t48.5 -37.5t72.5 -16q50 0 86 23t52 56.5t23 58.5t7 42v1076h203v-1076q0 -82 -45 -174q-44 -89 -128.5 -136.5t-197.5 -47.5t-197.5 47.5t-128.5 136.5q-45 92 -45 174zM203 1671l35 152l413 -144l-20 -104z" />
<glyph unicode="&#xda;" d="M59 358v1076h203v-1076q0 -17 6.5 -42t22.5 -58.5t52.5 -56.5t86.5 -23q41 0 72.5 16t48.5 37.5t28 49t14 46t3 31.5v1076h205v-1076q0 -82 -45 -174q-44 -89 -128.5 -136.5t-197.5 -47.5t-197.5 47.5t-128.5 136.5q-45 92 -45 174zM209 1679l414 144l34 -152l-428 -94z " />
<glyph unicode="&#xdb;" d="M59 358v1076h203v-1076q0 -17 6.5 -42t22.5 -58.5t52.5 -56.5t86.5 -23q41 0 72.5 16t48.5 37.5t28 49t14 46t3 31.5v1076h205v-1076q0 -82 -45 -174q-44 -89 -128.5 -136.5t-197.5 -47.5t-197.5 47.5t-128.5 136.5q-45 92 -45 174zM186 1669l244 180l242 -180l-113 -151 l-129 96l-131 -96z" />
<glyph unicode="&#xdc;" d="M59 358v1076h203v-1076q0 -17 6.5 -42t22.5 -58.5t52.5 -56.5t86.5 -23q41 0 72.5 16t48.5 37.5t28 49t14 46t3 31.5v1076h205v-1076q0 -82 -45 -174q-44 -89 -128.5 -136.5t-197.5 -47.5t-197.5 47.5t-128.5 136.5q-45 92 -45 174z" />
<glyph unicode="&#xdd;" horiz-adv-x="927" d="M59 1434h220l184 -451q30 76 93 225.5t93 225.5h219l-303 -736v-698h-203v698zM233 1679l414 144l35 -152l-428 -94z" />
<glyph unicode="&#xdf;" d="M59 0v1434h332q9 0 23.5 -1t52 -9t72 -22.5t76 -44.5t71 -71t50 -107.5t20.5 -148.5q0 -182 -109 -295q154 -111 154 -332q0 -82 -21 -149t-51 -107.5t-72.5 -71t-77.5 -44t-73.5 -21.5t-52.5 -9t-23 -1h-57v178h51l4 1q3 1 8 1q54 9 82 29q78 49 78 194 q0 61 -18.5 107.5t-46.5 70.5t-54 35t-47 11h-51v178h24q17 0 41 13t49 38t42.5 71t17.5 103q0 104 -50 163.5t-95 59.5h-146v-1253h-203z" />
<glyph unicode="&#xe0;" horiz-adv-x="1024" d="M59 0l308 1434h290l308 -1434h-207l-96 449h-300l-96 -449h-207zM285 1671l34 152l414 -144l-20 -104zM401 627h222l-111 514q-33 -148 -111 -514z" />
<glyph unicode="&#xe1;" horiz-adv-x="1024" d="M59 0l308 1434h290l308 -1434h-207l-96 449h-300l-96 -449h-207zM291 1679l414 144l34 -152l-428 -94zM401 627h222l-111 514q-33 -148 -111 -514z" />
<glyph unicode="&#xe2;" horiz-adv-x="1024" d="M59 0l308 1434h290l308 -1434h-207l-96 449h-300l-96 -449h-207zM266 1669l244 180l242 -180l-113 -151l-129 96l-131 -96zM401 627h222l-111 514q-33 -148 -111 -514z" />
<glyph unicode="&#xe4;" horiz-adv-x="1024" d="M59 0l308 1434h290l308 -1434h-207l-96 449h-300l-96 -449h-207zM274 1651q0 37 31 63.5t72 26.5t71.5 -26.5t30.5 -63.5t-30.5 -63.5t-71.5 -26.5t-72 26.5t-31 63.5zM401 627h222l-111 514q-33 -148 -111 -514zM545 1651q0 37 29.5 63.5t70.5 26.5q43 0 73 -26.5 t30 -63.5t-30 -63.5t-73 -26.5q-41 0 -70.5 26.5t-29.5 63.5z" />
<glyph unicode="&#xe8;" horiz-adv-x="770" d="M59 0v1434h652v-181h-449v-446h334v-180h-334v-449h449v-178h-652zM137 1671l35 152l414 -144l-21 -102z" />
<glyph unicode="&#xe9;" horiz-adv-x="770" d="M59 0v1434h652v-181h-449v-446h334v-180h-334v-449h449v-178h-652zM137 1679l414 144l35 -152l-428 -94z" />
<glyph unicode="&#xea;" horiz-adv-x="770" d="M59 0v1434h652v-181h-449v-446h334v-180h-334v-449h449v-178h-652zM131 1669l244 180l241 -180l-112 -151l-129 96l-131 -96z" />
<glyph unicode="&#xeb;" horiz-adv-x="770" d="M59 0v1434h652v-181h-449v-446h334v-180h-334v-449h449v-178h-652zM143 1651q0 37 31 63.5t72 26.5t71.5 -26.5t30.5 -63.5t-30.5 -63.5t-71.5 -26.5t-72 26.5t-31 63.5zM414 1651q0 37 29.5 63.5t70.5 26.5q42 0 72 -26.5t30 -63.5t-30 -63.5t-72 -26.5 q-41 0 -70.5 26.5t-29.5 63.5z" />
<glyph unicode="&#xec;" horiz-adv-x="448" d="M0 1671l35 152l414 -144l-21 -104zM111 0v1434h202v-1434h-202z" />
<glyph unicode="&#xed;" horiz-adv-x="448" d="M0 1679l414 144l35 -152l-429 -94zM111 0v1434h202v-1434h-202z" />
<glyph unicode="&#xee;" horiz-adv-x="505" d="M10 1669l244 180l242 -180l-113 -151l-129 96l-131 -96zM147 0v1434h203v-1434h-203z" />
<glyph unicode="&#xef;" horiz-adv-x="493" d="M10 1651q0 37 31 63.5t72 26.5t71.5 -26.5t30.5 -63.5t-30.5 -63.5t-71.5 -26.5t-72 26.5t-31 63.5zM145 0v1434h203v-1434h-203zM281 1651q0 37 29.5 63.5t70.5 26.5q42 0 72 -26.5t30 -63.5t-30 -63.5t-72 -26.5q-41 0 -70.5 26.5t-29.5 63.5z" />
<glyph unicode="&#xf2;" d="M59 358v717q0 82 45 174q44 89 128.5 137t197.5 48t197.5 -48t128.5 -137q45 -92 45 -174v-717q0 -82 -45 -174q-44 -89 -128.5 -136.5t-197.5 -47.5t-197.5 47.5t-128.5 136.5q-45 92 -45 174zM203 1671l35 152l413 -144l-20 -104zM264 358q0 -13 3 -31.5t14 -46t28 -49 t48.5 -37.5t72.5 -16q50 0 86 23t52 56.5t23 58.5t7 42v717q0 12 -3.5 30.5t-14.5 45.5t-28 48.5t-49 37.5t-73 16t-72.5 -15.5t-48.5 -37.5t-28 -48.5t-14 -45t-3 -31.5v-717z" />
<glyph unicode="&#xf3;" d="M59 358v717q0 82 45 174q44 89 128.5 137t197.5 48t197.5 -48t128.5 -137q45 -92 45 -174v-717q0 -82 -45 -174q-44 -89 -128.5 -136.5t-197.5 -47.5t-197.5 47.5t-128.5 136.5q-45 92 -45 174zM209 1679l414 144l34 -152l-428 -94zM262 358q0 -17 6.5 -42t22.5 -58.5 t52.5 -56.5t86.5 -23q41 0 72.5 16t48.5 37.5t28 49t14 46t3 31.5v717q0 13 -3 31.5t-14 45t-28 48.5t-48.5 37.5t-72.5 15.5t-73 -16t-49 -37.5t-28 -48.5t-14.5 -45.5t-3.5 -30.5v-717z" />
<glyph unicode="&#xf4;" d="M59 358v717q0 82 45 174q44 89 128.5 137t197.5 48t197.5 -48t128.5 -137q45 -92 45 -174v-717q0 -82 -45 -174q-44 -89 -128.5 -136.5t-197.5 -47.5t-197.5 47.5t-128.5 136.5q-45 92 -45 174zM186 1669l244 180l242 -180l-113 -151l-129 96l-131 -96zM262 358 q0 -17 6.5 -42t22.5 -58.5t52.5 -56.5t86.5 -23q41 0 72.5 16t48.5 37.5t28 49t14 46t3 31.5v717q0 13 -3 31.5t-14 45t-28 48.5t-48.5 37.5t-72.5 15.5t-73 -16t-49 -37.5t-28 -48.5t-14.5 -45.5t-3.5 -30.5v-717z" />
<glyph unicode="&#xf6;" d="M59 358v717q0 82 45 174q44 89 128.5 137t197.5 48t197.5 -48t128.5 -137q45 -92 45 -174v-717q0 -82 -45 -174q-44 -89 -128.5 -136.5t-197.5 -47.5t-197.5 47.5t-128.5 136.5q-45 92 -45 174zM188 1651q0 37 31 63.5t72 26.5t71.5 -26.5t30.5 -63.5t-30.5 -63.5 t-71.5 -26.5t-72 26.5t-31 63.5zM262 358q0 -17 6.5 -42t22.5 -58.5t52.5 -56.5t86.5 -23q41 0 72.5 16t48.5 37.5t28 49t14 46t3 31.5v717q0 13 -3 31.5t-14 45t-28 48.5t-48.5 37.5t-72.5 15.5t-73 -16t-49 -37.5t-28 -48.5t-14.5 -45.5t-3.5 -30.5v-717zM459 1651 q0 37 29.5 63.5t70.5 26.5q43 0 73 -26.5t30 -63.5t-30 -63.5t-73 -26.5q-41 0 -70.5 26.5t-29.5 63.5z" />
<glyph unicode="&#xf8;" d="M59 358v717q0 82 45 174q44 89 128.5 137t197.5 48t197.5 -48t128.5 -137q45 -92 45 -174v-717q0 -82 -45 -174q-44 -89 -128.5 -136.5t-197.5 -47.5t-197.5 47.5t-128.5 136.5q-45 92 -45 174zM262 571q39 112 118 334.5t118 335.5q-21 12 -68 12q-52 0 -86 -19t-57 -60 q-25 -45 -25 -99v-504zM342 199q47 -21 88 -21q97 0 143 82q23 41 23 98v551z" />
<glyph unicode="&#xf9;" d="M59 358v1076h205v-1076q0 -13 3 -31.5t14 -46t28 -49t48.5 -37.5t72.5 -16q50 0 86 23t52 56.5t23 58.5t7 42v1076h203v-1076q0 -82 -45 -174q-44 -89 -128.5 -136.5t-197.5 -47.5t-197.5 47.5t-128.5 136.5q-45 92 -45 174zM203 1671l35 152l413 -144l-20 -104z" />
<glyph unicode="&#xfa;" d="M59 358v1076h203v-1076q0 -17 6.5 -42t22.5 -58.5t52.5 -56.5t86.5 -23q41 0 72.5 16t48.5 37.5t28 49t14 46t3 31.5v1076h205v-1076q0 -82 -45 -174q-44 -89 -128.5 -136.5t-197.5 -47.5t-197.5 47.5t-128.5 136.5q-45 92 -45 174zM209 1679l414 144l34 -152l-428 -94z " />
<glyph unicode="&#xfb;" d="M59 358v1076h203v-1076q0 -17 6.5 -42t22.5 -58.5t52.5 -56.5t86.5 -23q41 0 72.5 16t48.5 37.5t28 49t14 46t3 31.5v1076h205v-1076q0 -82 -45 -174q-44 -89 -128.5 -136.5t-197.5 -47.5t-197.5 47.5t-128.5 136.5q-45 92 -45 174zM186 1669l244 180l242 -180l-113 -151 l-129 96l-131 -96z" />
<glyph unicode="&#xfc;" d="M59 358v1076h203v-1076q0 -17 6.5 -42t22.5 -58.5t52.5 -56.5t86.5 -23q41 0 72.5 16t48.5 37.5t28 49t14 46t3 31.5v1076h205v-1076q0 -82 -45 -174q-44 -89 -128.5 -136.5t-197.5 -47.5t-197.5 47.5t-128.5 136.5q-45 92 -45 174z" />
<glyph unicode="&#xfd;" horiz-adv-x="927" d="M59 1434h220l184 -451q30 76 93 225.5t93 225.5h219l-303 -736v-698h-203v698zM233 1679l414 144l35 -152l-428 -94z" />
<glyph unicode="&#xff;" horiz-adv-x="927" d="M59 1434h220l184 -451q30 76 93 225.5t93 225.5h219l-303 -736v-698h-203v698zM221 1651q0 37 31 63.5t72 26.5t71.5 -26.5t30.5 -63.5t-30.5 -63.5t-71.5 -26.5t-72 26.5t-31 63.5zM492 1651q0 37 29.5 63.5t70.5 26.5q42 0 72 -26.5t30 -63.5t-30 -63.5t-72 -26.5 q-41 0 -70.5 26.5t-29.5 63.5z" />
<glyph unicode="&#x152;" horiz-adv-x="1218" d="M59 358v717q0 82 45 174q44 89 128.5 137t197.5 48h729v-181h-493v-446h358v-180h-358v-449h493v-178h-729q-113 0 -197.5 47.5t-128.5 136.5q-45 92 -45 174zM262 358q0 -17 6.5 -42t22.5 -58.5t52.5 -56.5t86.5 -23h33v1075h-33q-41 0 -73 -16t-49 -37.5t-28 -48.5 t-14.5 -45.5t-3.5 -30.5v-717z" />
<glyph unicode="&#x178;" horiz-adv-x="927" d="M59 1434h220l184 -451q30 76 93 225.5t93 225.5h219l-303 -736v-698h-203v698zM221 1651q0 37 31 63.5t72 26.5t71.5 -26.5t30.5 -63.5t-30.5 -63.5t-71.5 -26.5t-72 26.5t-31 63.5zM492 1651q0 37 29.5 63.5t70.5 26.5q42 0 72 -26.5t30 -63.5t-30 -63.5t-72 -26.5 q-41 0 -70.5 26.5t-29.5 63.5z" />
<glyph unicode="&#x2000;" horiz-adv-x="924" />
<glyph unicode="&#x2001;" horiz-adv-x="1849" />
<glyph unicode="&#x2002;" horiz-adv-x="924" />
<glyph unicode="&#x2003;" horiz-adv-x="1849" />
<glyph unicode="&#x2004;" horiz-adv-x="616" />
<glyph unicode="&#x2005;" horiz-adv-x="462" />
<glyph unicode="&#x2006;" horiz-adv-x="308" />
<glyph unicode="&#x2007;" horiz-adv-x="308" />
<glyph unicode="&#x2008;" horiz-adv-x="231" />
<glyph unicode="&#x2009;" horiz-adv-x="369" />
<glyph unicode="&#x200a;" horiz-adv-x="102" />
<glyph unicode="&#x2010;" d="M59 627v180h742v-180h-742z" />
<glyph unicode="&#x2011;" d="M59 627v180h742v-180h-742z" />
<glyph unicode="&#x2012;" d="M59 627v180h742v-180h-742z" />
<glyph unicode="&#x2013;" horiz-adv-x="1030" d="M59 627v180h912v-180h-912z" />
<glyph unicode="&#x2014;" horiz-adv-x="2166" d="M59 627v180h2048v-180h-2048z" />
<glyph unicode="&#x2022;" horiz-adv-x="411" d="M59 717q0 56 43.5 95.5t104.5 39.5q60 0 102.5 -39.5t42.5 -95.5t-42.5 -95.5t-102.5 -39.5q-61 0 -104.5 39.5t-43.5 95.5z" />
<glyph unicode="&#x202f;" horiz-adv-x="369" />
<glyph unicode="&#x205f;" horiz-adv-x="462" />
<glyph unicode="&#x20ac;" horiz-adv-x="950" d="M59 494v178h91v90h-91v178h91v135q0 84 45 174q45 88 129 136.5t196 48.5q113 0 197.5 -48t128.5 -137q45 -92 45 -174v-90h-205v90q0 12 -3 30t-14 45t-28 49t-48.5 38t-72.5 16q-42 0 -74.5 -16t-49.5 -38t-27.5 -49t-13.5 -45t-3 -30v-135h269v-178h-269v-90h269v-178 h-269v-136q0 -12 3 -30t14 -45.5t28 -50t49.5 -38.5t73.5 -16q40 0 71.5 16t48.5 38.5t28 50t14.5 45.5t3.5 30v91h205v-91q0 -82 -45 -174q-44 -89 -128.5 -136.5t-197.5 -47.5q-112 0 -196.5 48t-128.5 136q-45 90 -45 174v136h-91z" />
<glyph unicode="&#xe000;" horiz-adv-x="1433" d="M0 0v1434h1434v-1434h-1434z" />
</font>
</defs>
</svg>
